<svg xmlns="http://www.w3.org/2000/svg" width="154" height="154" fill="none" viewBox="0 0 154 154"><path fill="#f7f4e5" d="M106.504 148.123c-39.218 16.267-84.36-2.403-100.627-41.616-16.267-39.218 2.402-84.363 41.62-100.63s84.36 2.402 100.627 41.621-2.403 84.364-41.62 100.631z"/><path fill="#f28ab8" d="M76.997 140.09c34.843 0 63.088-28.246 63.088-63.09S111.84 13.91 76.997 13.91C42.155 13.91 13.91 42.156 13.91 77s28.245 63.09 63.087 63.09"/><path fill="#a71f5f" d="m42.635 83.7 2.236-4.838c1.605.964 3.573 1.226 5.212.54 1.143-.474 1.74-1.31 1.394-2.14-.39-.948-1.489-.915-2.47-.77-4.593.797-8.128.535-9.683-3.222-1.572-3.785.652-7.543 4.493-9.137 2.838-1.176 5.57-1.037 8.106.29l-2.297 4.995c-1.617-.83-2.76-1.07-3.902-.597s-1.661 1.338-1.327 2.147c.357.864 1.349.808 2.319.635 4.415-.758 8.184-.786 9.9 3.356 1.511 3.646-.423 7.381-4.961 9.266-3.172 1.315-6.366 1.237-9.025-.53zM51.789 59.885l4.95-2.057 2.135 5.145c.229.558.53 1.283.753 1.807l.028-.011c.323-2.124 1.923-3.306 3.255-3.864 3.395-1.41 6.149.285 7.465 3.457l4.086 9.85-4.95 2.052-3.485-8.401c-.613-1.472-1.828-2.208-3.194-1.645-1.338.552-1.79 1.98-1.154 3.512l3.462 8.346-4.95 2.057-8.401-20.253zM72.387 66.24c-1.974-4.755-.156-9.42 4.543-11.372 4.7-1.951 8.752-.045 10.781 4.856.229.557.39 1.014.552 1.566l-10.541 4.376c1.065 1.388 2.648 1.901 4.37 1.188 1.332-.552 2.146-1.511 2.158-2.983l4.704.1c-.25 3.401-2.213 5.743-5.384 7.058-4.672 1.94-9.22-.055-11.183-4.783zm10.307-6.266c-.975-1.26-2.374-1.722-4.019-1.036-1.611.668-2.291 2.023-2.185 3.612zM87.098 57.237l-2.704-9.344 5.09-2.112.034.083 1.56 9.817-3.952 1.64-.033-.084zM95.042 62.873l1.923-4.092c1.165.692 2.498.987 3.635.513.892-.368 1.193-.981.948-1.566-.29-.697-.965-.675-1.89-.552-3.557.63-6.116-.04-7.303-2.905-1.271-3.06.507-6.015 3.646-7.32 2.001-.83 4.025-.758 5.981.357l-1.945 4.198c-.931-.59-1.779-.825-2.587-.49-.78.323-1.131.959-.903 1.516.301.725 1.154.663 2.163.502 3.59-.703 5.97.167 7.102 2.893 1.238 2.977-.368 6.02-3.707 7.409-2.392.992-4.967.92-7.069-.457zM38.393 111.223c-1.918-4.616-.145-9.232 3.557-10.765 1.806-.752 3.411-.73 4.922.078l.056-.022c-.201-.407-.469-1.048-.653-1.489l4.979-2.068 6.265 15.108-4.978 2.068a31 31 0 0 1-.596-1.511l-.056.023c-.502 1.706-1.79 2.993-3.322 3.629-3.953 1.639-8.262-.424-10.174-5.04zm11.11-4.644c-.808-1.945-2.681-2.932-4.487-2.179-1.807.752-2.481 2.826-1.673 4.772.808 1.945 2.687 2.865 4.527 2.101 1.806-.752 2.48-2.659 1.639-4.688zM52.636 96.383l4.95-2.057c.229.557.463 1.115.68 1.639l.056-.022c.357-1.584 1.628-2.989 3.3-3.685 3.395-1.41 6.149.284 7.465 3.456l4.086 9.851-4.95 2.051-3.485-8.401c-.613-1.472-1.772-2.23-3.222-1.633-1.45.596-1.722 2.051-1.126 3.501l3.462 8.345-4.95 2.057-6.266-15.108zM70.559 84.738c-.636-1.533.072-3.128 1.739-3.82 1.667-.69 3.3-.06 3.936 1.467.635 1.528-.056 3.088-1.75 3.791-1.673.691-3.29.095-3.925-1.438m1.85 3.44 4.95-2.058 6.267 15.108-4.95 2.057zM81.58 93.24c-1.996-4.812-.134-9.433 4.57-11.384 3.48-1.444 6.935-.497 9.344 2.48l-3.903 3.25c-.986-1.126-2.257-1.672-3.623-1.103-1.834.763-2.297 2.715-1.466 4.716.83 2.001 2.514 3 4.354 2.24 1.388-.573 1.912-1.839 1.761-3.372l5.084-.48c.418 3.836-1.382 6.964-4.994 8.463-4.566 1.896-9.154-.05-11.127-4.81M97.11 86.767c-1.951-4.7-.033-9.444 4.666-11.39 4.672-1.94 9.41.045 11.344 4.717 1.951 4.7.023 9.477-4.654 11.417-4.7 1.952-9.41-.044-11.361-4.744zm11.066-4.621c-.797-1.918-2.62-3.022-4.516-2.236-1.89.786-2.43 2.866-1.622 4.817.797 1.917 2.659 3.038 4.555 2.252 1.889-.786 2.391-2.882 1.583-4.828zM111.058 72.144l4.95-2.057.68 1.64.056-.023c.357-1.583 1.628-2.988 3.3-3.685 3.395-1.41 6.149.284 7.464 3.456l4.087 9.85-4.951 2.052-3.484-8.4c-.613-1.473-1.773-2.23-3.222-1.634-1.444.602-1.722 2.051-1.126 3.5l3.462 8.346-4.95 2.057-6.266-15.107z"/></svg>