<svg xmlns="http://www.w3.org/2000/svg" width="139" height="140" fill="none" viewBox="0 0 139 140"><path fill="#f7f4e5" d="M40.469 132.447c-17.183-7.663-30.088-21.065-36.33-37.735-6.214-16.6-5.409-35.354 2.263-52.82C14.158 24.246 27.618 10.935 44.31 4.422 61.007-2.098 79.844-1.39 97.347 6.42c17.173 7.738 30.221 20.802 36.799 36.805 6.673 16.24 6.289 34.436-1.094 51.23l-.187.418c-7.559 16.38-20.186 27.143-34.995 30.33-3.745 7.744-11.39 13.273-20.464 13.886-12.894.865-24.977-1.306-36.942-6.642z"/><path fill="#f28ab8" d="M45.84 120.216C17.092 107.4 5.612 76.736 18.543 47.304c13.07-29.75 43.952-41.797 73.432-28.658 28.972 13.058 41.13 42.652 28.94 70.391-.026.065-.058.13-.085.188-7.239 15.692-19.946 24.172-33.79 23.554l.016 1.483c.07 6.035-4.561 11.07-10.536 11.473-10.696.72-20.73-1.085-30.685-5.524z"/><path fill="#a71f5f" d="M28.87 51.904c10.489-23.87 34.479-33.586 58.538-22.86 22.577 10.173 32.958 33.146 23.185 55.388-6.77 14.676-18.757 20.619-31.736 14.837-4.865-2.17-7.965-6.158-8.493-10.839-4.348 2.295-9.261 2.929-14.489.597-10.995-4.901-12.44-16.079-7.933-26.332 5.186-11.801 16.922-19.378 28.274-14.316 4.417 1.967 6.562 5.422 7.01 9.313l.528.021c.736-1.193 1.478-2.38 2.214-3.573l12.707 5.664C96.6 52.259 91.052 45.767 81.951 41.71c-16.399-7.314-32.579.564-39.514 16.358-7.34 16.702-1.494 32.334 14.009 39.245 6.039 2.692 12.574 3.762 19.173 3.45l.149 13.639c-8.882.596-17.071-.882-25.361-4.579-22.71-10.124-32.27-33.49-21.541-57.908zm46.375 20.028c1.835-4.175.795-8.437-3.078-10.167-4.236-1.886-8.594 1.16-10.744 6.062-1.558 3.541-.699 7.722 3.174 9.447 4.327 1.93 8.696-.903 10.648-5.347zm10.168 9.958c-1.478 2.38-1.792 5.062.64 6.148 4.145 1.848 8.008-3.267 10.563-9.077 2.913-6.626 3.622-13.15 2.07-18.942z"/></svg>