<svg xmlns="http://www.w3.org/2000/svg" width="1536" height="1024"><path fill="#c7ae2a" d="M1013 344c2 1 2 1 4 4 2.023.506 2.023.506 4.352.512l2.578.107 2.695.068 2.719.104q3.327.124 6.656.209l1-2a100 100 0 0 1 4-3l3 2 2-2c.553 2.076 1 3.844 1 6h14v2h23v2l9-1v2h12v2l2.09.148c4.568.364 8.964.777 13.41 1.914 4.38 1.074 8.527 1.06 13.02.91 2.48.028 2.48.028 4.617.587 2.073.663 2.073.663 4.863-.559l.434 2.281c2.436 4.228 6.137 4.785 10.629 6.219q2.604.894 5.203 1.805l2.502.874c7.352 2.705 14.252 6.916 19.044 13.196 2.337 5.165 2.655 9.057.75 14.375-2.652 6.04-6.55 11.058-10.562 16.25a4212 4212 0 0 0-4.773 6.637L1165 423h-2l-.787 1.772c-1.3 2.387-2.703 3.961-4.627 5.873l-2.059 2.052-2.152 2.115-2.082 2.08c-7.28 7.218-14.972 13.724-23.07 19.995-2.242 2.132-2.903 3.094-3.223 6.113l-2-1a152 152 0 0 0-6.457 4.547c-29.084 21.45-60.572 39.348-93.033 55.152l-3.307 1.614-2.964 1.425c-2.372 1.062-2.372 1.062-3.239 3.262l-2.875.313c-3.408.394-6.037 1.45-9.129 2.925-5.94 2.764-11.968 5.227-18.058 7.637l-3.347 1.327q-3.31 1.311-6.62 2.618-3.674 1.46-7.33 2.961c-38.057 15.462-78.503 26.987-118.374 36.668q-3.676.895-7.35 1.796c-68.416 16.7-137.724 29.48-207.982 34.805l-2.265.173q-3.025.228-6.05.452c-6.923.179-6.923.179-12.62 3.325a93 93 0 0 1-7.937.25l-2.21.023c-3.811-.014-5.611-.112-8.853-2.273-2.647-.309-2.647-.309-5.621-.266l-3.334-.007-3.482.023-3.471-.023-3.338.007-3.053.007c-2.752.264-4.296.982-6.701 2.259-2.687-.375-2.687-.375-5-1h-1l-2 2v-2h-5v2h-7v-3c-5.068-1.267-10.561-1.975-15.5 0l-1.5 1-1-4-1.82.07c-8.736.181-17.232-.92-25.867-2.07l-4.475-.578Q488.418 614.72 483 614v2h-2v-2l-14-3v3l3 1h-5l1-5-3.809-.34c-5.537-.615-10.853-1.88-16.253-3.222l-2.913-.71A1715 1715 0 0 1 436 604v2l-5-1 1-2-3.777-1.25C388.976 588.535 388.976 588.535 382 575c-1.77-5.52-.623-9.278 1.645-14.395 5.595-10.755 13.988-20.013 23.222-27.78 2.452-2.098 4.781-4.305 7.133-6.513 10.763-9.787 22.775-18.01 34.88-26.036l2.33-1.561 2.073-1.371c1.989-1.412 1.989-1.412 3.717-4.344a402 402 0 0 1 6-2 139 139 0 0 0 6.25-4c8.32-5.493 16.976-10.276 25.75-15l2.581-1.402C513.676 461.88 530.197 454.234 547 447l3.326-1.433C579.493 433.11 609.63 423.073 640 414v-4l1-2c3 1 3 1 4.875 2.125 2.727 1.123 4.333.65 7.125-.125h-4l1-2 2.02.105c7.155.21 13.186-.897 19.98-3.105v-5l1.75.563c2.457.477 3.894.194 6.25-.563v2a1261 1261 0 0 0 30.555-7.016l3.286-.796q6.743-1.635 13.484-3.28 4.988-1.216 9.98-2.424l3.08-.757 2.857-.689 2.5-.61C748 386 748 386 752 386l1-2c1.836-.26 3.674-.507 5.518-.695 4.868-.598 9.64-1.747 14.431-2.782L780.1 379c1.24-.265 2.481-.53 3.759-.805 20.19-4.32 40.388-8.521 60.701-12.226l2.144-.393q2.788-.509 5.578-1.01c2.67-.434 2.67-.434 4.719-1.565 1.637-.194 3.28-.342 4.923-.465 5.807-.486 11.543-1.247 17.307-2.094l3.134-.452q4.913-.71 9.823-1.426 6.459-.939 12.918-1.872l3.125-.452a770 770 0 0 1 21.947-2.83c2.767-.25 2.767-.25 4.823-1.409a99 99 0 0 1 5 0c3.677.038 7.224-.069 10.875-.5 6.036-.691 12.058-.586 18.125-.5l1-3 2 1 1-2 2 2c3.253.36 3.253.36 6.938.313l3.777.05c3.26-.069 3.26-.069 5.226-1.883L992 346l1 2-1 2 7-4 2 2c4.336.315 6.327.449 10-2h2zm117 17c3.445 2.296 5.938 2.54 10 3l-1-2c-2.126-.467-2.126-.467-4.562-.625l-2.504-.227zm-453 41-1 2h2z"/><path fill="#7b6900" d="M1013 344c2 1 2 1 4 4 2.023.506 2.023.506 4.352.512l2.578.107 2.695.068 2.719.104q3.327.124 6.656.209l1-2a100 100 0 0 1 4-3l3 2 2-2c.553 2.076 1 3.844 1 6h14v2h23v2l9-1v2h12v2l2.09.148c4.568.364 8.964.777 13.41 1.914 4.38 1.074 8.527 1.06 13.02.91 2.48.028 2.48.028 4.617.587 2.073.663 2.073.663 4.863-.559l.434 2.281c2.436 4.228 6.137 4.785 10.629 6.219q2.604.894 5.203 1.805l2.502.874c7.352 2.705 14.252 6.916 19.044 13.196 2.337 5.165 2.655 9.057.75 14.375-2.652 6.04-6.55 11.058-10.562 16.25a4212 4212 0 0 0-4.773 6.637L1165 423h-2l-.787 1.772c-1.3 2.387-2.703 3.961-4.627 5.873l-2.059 2.052-2.152 2.115-2.082 2.08c-7.28 7.218-14.972 13.724-23.07 19.995-2.242 2.132-2.903 3.094-3.223 6.113l-2-1a152 152 0 0 0-6.457 4.547c-29.084 21.45-60.572 39.348-93.033 55.152l-3.307 1.614-2.964 1.425c-2.372 1.062-2.372 1.062-3.239 3.262l-2.875.313c-3.408.394-6.037 1.45-9.129 2.925-5.94 2.764-11.968 5.227-18.058 7.637l-3.347 1.327q-3.31 1.311-6.62 2.618-3.674 1.46-7.33 2.961c-38.057 15.462-78.503 26.987-118.374 36.668q-3.676.895-7.35 1.796c-68.416 16.7-137.724 29.48-207.982 34.805l-2.265.173q-3.025.228-6.05.452c-6.923.179-6.923.179-12.62 3.325a93 93 0 0 1-7.937.25l-2.21.023c-3.811-.014-5.611-.112-8.853-2.273-2.647-.309-2.647-.309-5.621-.266l-3.334-.007-3.482.023-3.471-.023-3.338.007-3.053.007c-2.752.264-4.296.982-6.701 2.259-2.687-.375-2.687-.375-5-1h-1l-2 2v-2h-5v2h-7v-3c-5.068-1.267-10.561-1.975-15.5 0l-1.5 1-1-4-1.82.07c-8.736.181-17.232-.92-25.867-2.07l-4.475-.578Q488.418 614.72 483 614v2h-2v-2l-14-3v3l3 1h-5l1-5-3.809-.34c-5.537-.615-10.853-1.88-16.253-3.222l-2.913-.71A1715 1715 0 0 1 436 604v2l-5-1 1-2-3.777-1.25C388.976 588.535 388.976 588.535 382 575c-1.77-5.52-.623-9.278 1.645-14.395 5.595-10.755 13.988-20.013 23.222-27.78 2.452-2.098 4.781-4.305 7.133-6.513 10.763-9.787 22.775-18.01 34.88-26.036l2.33-1.561 2.073-1.371c1.989-1.412 1.989-1.412 3.717-4.344a402 402 0 0 1 6-2 139 139 0 0 0 6.25-4c8.32-5.493 16.976-10.276 25.75-15l2.581-1.402C513.676 461.88 530.197 454.234 547 447l3.326-1.433C579.493 433.11 609.63 423.073 640 414v-4l1-2c3 1 3 1 4.875 2.125 2.727 1.123 4.333.65 7.125-.125h-4l1-2 2.02.105c7.155.21 13.186-.897 19.98-3.105v-5l1.75.563c2.457.477 3.894.194 6.25-.563v2a1261 1261 0 0 0 30.555-7.016l3.286-.796q6.743-1.635 13.484-3.28 4.988-1.216 9.98-2.424l3.08-.757 2.857-.689 2.5-.61C748 386 748 386 752 386l1-2c1.836-.26 3.674-.507 5.518-.695 4.868-.598 9.64-1.747 14.431-2.782L780.1 379c1.24-.265 2.481-.53 3.759-.805 20.19-4.32 40.388-8.521 60.701-12.226l2.144-.393q2.788-.509 5.578-1.01c2.67-.434 2.67-.434 4.719-1.565 1.637-.194 3.28-.342 4.923-.465 5.807-.486 11.543-1.247 17.307-2.094l3.134-.452q4.913-.71 9.823-1.426 6.459-.939 12.918-1.872l3.125-.452a770 770 0 0 1 21.947-2.83c2.767-.25 2.767-.25 4.823-1.409a99 99 0 0 1 5 0c3.677.038 7.224-.069 10.875-.5 6.036-.691 12.058-.586 18.125-.5l1-3 2 1 1-2 2 2c3.253.36 3.253.36 6.938.313l3.777.05c3.26-.069 3.26-.069 5.226-1.883L992 346l1 2-1 2 7-4 2 2c4.336.315 6.327.449 10-2h2zm-74 20-2.372.257c-27.007 2.96-53.837 7.265-80.628 11.743l-2.352.393c-35.95 6.015-71.613 13.393-107.13 21.57-4.071.936-8.146 1.857-12.221 2.775C683.055 412.367 632.26 426.668 583 445l-1.936.718c-18.458 6.848-36.34 14.72-54.064 23.282l-3.188 1.536C485.797 488.94 449.788 511.07 418 539l-1.638 1.43c-10.186 8.331-10.186 8.331-16.112 19.633 1.172 4.591 3.822 6.466 7.75 8.937 34.046 17.846 79.512 19.115 117.164 19.203l2.553.009q6.72.022 13.437.028 5.412.007 10.824.041C647.49 588.876 742.643 570.325 1031 480l3.367-1.625c15.554-7.55 30.695-15.674 45.633-24.375l3.319-1.92c14.619-8.466 28.97-17.189 42.681-27.08l2.126-1.53c19.335-13.284 19.335-13.284 34.874-30.47v-3l-3.402-.332c-7.897-.82-15.169-1.696-22.598-4.668-.082-3.044.024-5.072 1-8-18.05-7.129-36.788-10.706-56-13l-2.493-.3a897 897 0 0 0-7.257-.825l-2.069-.23A335 335 0 0 0 1063 362l-3.254-.268c-15.06-1.06-30.157-.978-45.246-.982l-2.215-.001c-24.535-.008-48.875.583-73.285 3.251m191-3c3.445 2.296 5.938 2.54 10 3l-1-2c-2.126-.467-2.126-.467-4.562-.625l-2.504-.227zm-453 41-1 2h2z"/><path fill="#fddd44" d="M899.05 399.705q2.124-.018 4.248-.062c15.949-.331 32.963 1.918 45.14 13.17 3.585 3.846 5.306 7.08 6.562 12.187-.441 2.738-.441 2.738-1 5q-7.387 1.659-14.777 3.308l-5.012 1.123c-9.042 2.03-18.068 4.04-27.211 5.569l-1.375-2.875c-1.427-3.128-1.427-3.128-3.625-5.125-2.99-.359-2.99-.359-6.375-.312l-3.46-.051c-3.376.387-4.718 1.08-7.165 3.363l-1.023-1.715-1.352-2.222-1.336-2.215c-1.166-1.986-1.166-1.986-3.289-2.848-9.596-.769-18.468.813-27.773 2.965q-2.1.469-4.2.935c-3.706.826-7.41 1.669-11.112 2.515-3.854.879-7.712 1.742-11.57 2.607-8.152 1.831-16.3 3.685-24.445 5.545q-4.14.942-8.279 1.882a4041 4041 0 0 0-30.367 7.022q-3.58.84-7.161 1.676C724.948 457.681 724.948 457.681 697 465l-2.412.67a487 487 0 0 0-6.713 1.955l-3.695 1.102c-3.386 1.356-5.6 2.698-8.18 5.273-1.006 2.318-1.006 2.318-1.313 4.75l-.425 2.422L674 483l-1.758.297c-5.194.994-9.22 2.064-13.242 5.703-.75 1.948-.75 1.948-1.313 4.063-.654 2.007-.654 2.007-1.687 3.937-7.217 3.017-14.977 4.51-22.594 6.217-2.101.472-4.2.956-6.299 1.441q-2.028.46-4.056.916l-3.667.831c-3.212.565-6.132.708-9.384.595-2.755-4.304-2.453-8.374-1.605-13.29 3.308-13.446 13.42-22.424 24.605-29.71 4.445-2.683 9.067-4.913 13.807-7.023a257 257 0 0 0 4.34-1.981c70.119-32.662 170.33-54.856 247.903-55.291M961 450c3.304 6.195 2.61 13.358 1.063 20-3.493 10.395-13.396 18.132-22.903 22.928-11.266 5.36-22.692 9.42-34.66 12.885l-5.22 1.536C682.618 570.731 682.618 570.731 632 552l-2.52-.91c-5.005-2.145-8.669-5.422-11.48-10.09-1.27-3.281-2.214-6.573-3-10 3.682-2.428 6.986-3.709 11.262-4.754l3.642-.9 3.784-.909 3.724-.92c19.894-4.87 19.894-4.87 26.588-4.517l1.313 3.375c1.386 3.8 1.386 3.8 4.687 5.625 5.155.258 9.92-.153 15-1l1.375 2.438c1.372 2.65 1.372 2.65 3.625 3.562 11.22.682 21.559-.47 32.512-3.043q2.162-.486 4.325-.969c3.83-.859 7.653-1.74 11.476-2.627 3.21-.742 6.424-1.47 9.637-2.198A4760 4760 0 0 0 779 517l2.054-.48a3885 3885 0 0 0 45.37-10.904 4336 4336 0 0 1 17.534-4.27q7.277-1.767 14.548-3.553 3.456-.846 6.915-1.68c3.175-.768 6.346-1.55 9.516-2.336l2.833-.674c5.673-1.427 11.117-2.94 14.535-8.056.765-2.252 1.34-4.467 1.82-6.797l.508-2.422L895 474c2.105 0 4.21.069 6.313.188 4.03-.205 6.28-1.08 9.687-3.188 1.148-2.296 1.308-4.077 1.563-6.625l.253-2.477L913 460c4.461-1.579 8.933-2.726 13.559-3.691l2.143-.455q2.233-.474 4.465-.94 3.39-.714 6.78-1.435l4.362-.92 2.02-.43C956.541 450 956.541 450 961 450"/><path fill="#6d5d00" d="M875 431.582c7.642 5.418 10.21 20.872 12 29.418.842 4.98 1.459 9.98 2 15h2l1-2c2.037 4.074 2.279 6.616 1 11-3.386 5.824-8.675 7.065-14.812 8.791a762 762 0 0 1-10.036 2.545l-3.822.957q-5.13 1.284-10.264 2.554-3.2.794-6.4 1.592A5009 5009 0 0 1 762 522l-2.534.593-2.41.554-2.114.49c-2.665.498-5.242.501-7.942.363l4-3c-.348-1.975-.348-1.975-1-4l-2-1 .484-2.855c.683-4.814.738-9.602.766-14.457l.063-2.686c.036-6.333-.766-12.152-3.313-18.002-3.59-3.59-6.22-5.01-11.187-5.25-5.195-.513-7.909-2.344-11.813-5.75v-2c4.262-.979 8.192-1.771 12.316-.012 2.344 1.556 4.505 3.232 6.684 5.012l2.68 2.008c9.41 7.173 9.41 7.173 11 13.844.882 8.674.725 17.541-.68 26.148l.813-1.75c1.204-2.283 2.595-4.224 4.187-6.25l1 2v-23c7 5 7 5 8 7 .071 2.374.084 4.75.063 7.125l-.028 3.883L769 504h2l1-5 2 3-.25-3.25c.25-3.75.25-3.75 2.25-6.187l2-1.563 4 3a975 975 0 0 0-3.375-3.937l-1.898-2.215c-1.604-1.932-1.604-1.932-3.727-2.848-.633-1.848-.633-1.848-1.125-4.062l-.508-2.223L771 477c7.995 4.896 14.945 10.872 22 17l-2.387-2.355c-2.11-2.136-3.892-4.2-5.613-6.645h2c-2.1-3.94-4.283-6.29-7.812-9-4.811-3.818-9.376-7.82-13.875-12-.625-.576-1.25-1.152-1.892-1.746A248 248 0 0 1 759 458v-1c3.125-.805 3.125-.805 7-1 2.42 1.574 4.03 2.858 6 4.875l1.56 1.511c4.254 4.205 7.951 8.759 11.44 13.614l1 1-1-4 5-2 3 3-1 3q3.09 2.878 6.188 5.75l1.751 1.633c2.562 2.373 5.117 4.662 7.85 6.84 2.49 2.002 4.246 4.27 6.211 6.777l2 1v-6l6 3-1-3h-3a71 71 0 0 1-5.125-5.625l-1.459-1.75C805.514 478.394 799.992 470.46 796 462c5.104 3.09 9.286 6.9 13.633 10.977 2.47 2.275 2.47 2.275 6.367 4.023l-9-8 1-3 5 1c-5.705-5.353-11.463-10.235-17.969-14.59C793 451 793 451 791 449c3.45-1.046 6.407-1.419 10-1 4.415 2.502 8.124 5.744 12 9a276 276 0 0 0 5.625 4l2.414 1.688c1.919 1.343 1.919 1.343 3.961 2.312v4l2.168-.809C830 468 830 468 832.676 470.09l2.636 2.848 2.676 2.84L840 478l-5-7 4-1c2.75 2.438 2.75 2.438 5 5-3.797-5.106-8.292-8.823-13.281-12.754-2.751-2.273-5.201-4.72-7.719-7.246a212 212 0 0 0-5.187-4.25l-2.606-2.078c-2.091-1.69-2.091-1.69-4.207-2.672v-3l2-1v-2h-9c4.079-4.079 11.092-3.934 16.617-4.125 3.13 0 6.254.035 9.383.125l-2 5 2-1c2.8-.477 2.8-.477 6 0 2.07 2.213 3.57 4.118 5.188 6.625l1.287 1.871c2.5 3.695 4.616 7.462 6.525 11.504-5.64-1.327-8.156-3.807-11.75-8.062-3.195-3.988-3.195-3.988-7.25-6.938l2.5 2.25C835 450 835 450 835 454c-3.478-1.516-5.956-3.577-8.75-6.125l-2.422-2.195L822 444c2.603 2.622 5.22 5.22 7.902 7.762 6.775 6.491 11.87 12.782 16.098 21.238h4l2 7h3l-1.363-1.64c-1.823-2.628-2.783-5.092-3.824-8.11l-1.043-2.984L848 465l4-1 5 6-.625-2.375L856 465l2-2-1.25-1.914c-4.87-7.543-9.353-15.263-13.75-23.086l7-1c5.48 8.586 9.429 17.145 12 27l.375-1.937L863 460l2-1 1 3c-1.612-8.646-4.084-17.627-9-25v-3l6-1c4.974 11.164 8.585 22.016 11 34l2-2 3-1q.543 2.904 1.063 5.813l.597 3.269C881 476 881 476 880 479l2 1-1 5c1.952-1.952 2.848-3.532 4-6l-1.941-2.11c-2.35-3.299-2.651-5.146-2.996-9.14-1.406-11.825-4.972-23.002-10.063-33.75v-2c3-1 3-1 5-.418"/><path fill="#665800" d="m808.063 438.875 3.41.055L814 439v4h-3v3l1.66.766c7.295 3.848 13.158 8.886 18.34 15.234a272 272 0 0 0 8.477 6.754c2.522 2.245 3.966 4.273 5.523 7.246-3.161-1.37-3.993-1.99-6-5l-3 1 5 5-1 2-2.012-2.187-2.676-2.813-2.636-2.812c-2.471-2.425-2.471-2.425-5.508-2.5L825 469v-4l-1.992-.625c-4.159-1.901-7.526-4.59-11.133-7.375l-4.258-3.25-1.887-1.453c-3.054-2.507-3.054-2.507-6.773-3.274l-2.144.352L793 450l2.055 1.434c6.734 4.784 12.919 9.919 18.945 15.566l-2 1c-2.125-.937-2.125-.937-4-2 .537 3.851 2.116 5.318 5.063 7.75l2.222 1.86L817 477l-1 2-2.125-1.977c-5.414-4.987-10.849-9.775-16.875-14.023 6.636 10.681 13.989 20.315 22 30l3-1v4c-3.875-.875-3.875-.875-5-2l-1 5c-3.53-1.307-5.228-3.4-7.527-6.297-2.818-3.259-6.195-5.922-9.473-8.703q-2.253-1.966-4.5-3.937l-2.031-1.778L791 477l1-4c-3-1.333-3-1.333-6 0l2 8c-1.977-1.78-3.31-3.479-4.766-5.73-2.35-3.44-4.904-6.416-7.734-9.457l-1.434-1.577c-3.696-4.019-3.696-4.019-8.066-7.236-3.192.226-3.192.226-6 1 5.662 5.821 11.538 11.27 17.918 16.3l3.02 2.387 2.84 2.2c2.268 2.157 2.92 3.062 3.222 6.113v2c1.557 1.578 1.557 1.578 3.5 3.125l1.969 1.633L794 493l-1 2-2.562-2.195C784.423 487.672 778.404 482.646 772 478c.181 3.438.181 3.438 1 7a89 89 0 0 0 4 2c1.922 1.945 1.922 1.945 3.75 4.125l1.86 2.195L784 495c-3 0-3 0-4.687-1.5L778 492c-3.115 3.375-3.097 5.52-3 10-1.961 1.961-3.504 2.873-6 4h-1v-18l-4-2-2-1c.01.615.02 1.23.032 1.864.041 2.795.067 5.59.093 8.386.017.968.034 1.936.05 2.934l.02 2.832.032 2.602c-.244 2.561-.937 4.177-2.227 6.382l-1-2-5 5 .5-3.562c1.012-9.274 1.934-19.608-1.5-28.438-3.272-3.541-6.836-6.635-10.562-9.687l-2.817-2.325c-4.154-3.15-6.626-4.251-11.871-4.113l-2.703.055L723 465v2l2.375.875C728 469 728 469 730 471c2.004.312 2.004.312 4.25.375 5.404.495 8.667 2.542 12.5 6.375 3.61 6.499 3.562 13.644 3.5 20.875l.023 2.773c-.014 4.933-.337 8.978-2.273 13.602h-3l-3 2 .219-2.457c1.953-18.98 1.953-18.98-4.219-36.543-2.06-.724-2.06-.724-4-1l.656 1.852c2.21 7.261 2.647 14.024 2.657 21.586l.015 2.906c-.045 4.623-.101 8.477-2.328 12.656-1.142-3.427-.909-5.611-.562-9.187l.308-3.293L735 501h-1l-2 7h-1l-.078-3.297c-.387-11.34-1.047-22.8-9.422-31.363-2.131-1.904-3.815-3.292-6.5-4.34-3.73.222-3.73.222-7 1l1.723 1.215C719.83 478.656 725.537 486.848 729 499c.322 2.523.295 4.465 0 7h-1l-2-8h-1v9c-1.79-2.686-2.786-5.074-3.85-8.09-3.984-11.04-10.218-18.385-20.01-24.95-2.549-1.143-4.374-1.214-7.14-.96l-1 1 2.852 1.688c11.128 6.749 17.797 13.519 21.75 26.25.478 2.476.494 4.791.46 7.312l-.027 2.703L718 514h-1l-1-7-2 1c-.469 2.816-.469 2.816-.625 6.063l-.227 3.347L713 520h-1l-.113-2.676C711.217 505.1 709.515 495.85 702 486a63 63 0 0 0 2.063 6.938c.888 2.9 1.114 5.058.937 8.062-2.36-2.36-2.491-3.779-3-7l-2 1v24h-1l-.113-3.805c-.505-13.905-1.52-25.828-11.887-36.195-5.945.32-5.945.32-11 3h-2c-.466-3.914-.178-5.704 1.875-9.125 6.12-6.582 17.07-8.058 25.438-10.062l3.643-.892q3.934-.96 7.872-1.912c4.3-1.038 8.598-2.092 12.895-3.146a6632 6632 0 0 1 51.474-12.38q5.559-1.318 11.122-2.62 3.254-.76 6.501-1.554c4.494-1.076 8.623-1.531 13.242-1.434M744 510l1 3Z"/><path fill="#5c4f01" d="M552 472c.742 4.658 1.387 9.323 2 14l.45 2.512c.613 5.443-1.572 8.598-4.825 12.8l-2.46 2.989c-2.373 2.765-2.373 2.765-4.165 6.699l15 9c-1.046 5.23-2.282 7.089-5.5 11.188-3.018 3.73-3.018 3.73-5.5 7.812l2.484.734c4.155 1.496 7.9 3.399 11.766 5.516l2.18 1.121c3.45 1.893 5.23 2.912 6.953 6.543L571 556l.852 3.07.773 3.055c.26 1.013.52 2.026.79 3.07C574 568 574 568 574 572l-7 1-.805-2.633-1.07-3.492-1.055-3.445L563 560l-.594-3.125c-2.157-4.41-5.722-5.694-10.031-7.75l-2.43-1.219A375 375 0 0 0 544 545c-2.824 2.678-5.032 5.348-7.125 8.625-1.534 2.392-2.861 4.361-4.875 6.375-3.483-.378-6.215-2.11-9.187-3.875l-2.668-1.555C518 553 518 553 517 550c1.215-2.262 1.215-2.262 2.938-4.687l1.714-2.45L523 541c2.438.813 2.438.813 5 2 1.044 3.133.934 3.99 0 7l3 1 .813-2.187C533 546 533 546 536 541l-14-8c-2.437 3.046-4.757 5.993-6.98 9.172l-1.588 2.262-1.62 2.316-3.23 4.61-1.43 2.045C506 555 506 555 505 556c-7.229-.09-12.663-3.858-18.75-7.437l-3.152-1.815c-3.76-2.172-7.484-4.339-11.098-6.748.424-5.246 2.349-8.31 5.625-12.25q1.366-1.703 2.727-3.41l1.36-1.696c2.455-3.133 4.674-6.43 6.913-9.718C490 511 490 511 492 509c3.994.326 6.691 1.821 10.012 3.977l2.795 1.78 5.797 3.759 2.783 1.773 2.538 1.647L518 523l2-1v-2l-13-7c.964-4.82 1.757-6.599 4.625-10.375l1.977-2.71C516 498 516 498 519.372 497.956c3.99 1.147 6.684 2.712 10.066 5.106l3.183 2.222L535 507c7.405-6.52 7.405-6.52 11.191-15.164-.266-2.322-.695-4.552-1.191-6.836a159 159 0 0 1-.812-5.375l-.395-2.46C544 475 544 475 545.738 473.21 548 472 548 472 552 472"/><path fill="#5d4f01" d="M1011 372h6q.729 2.027 1.438 4.063l.808 2.285c.754 2.652.754 2.652.922 6.218.5 3.7.5 3.7 3.887 5.614a99 99 0 0 0 3.82 1.695l1.934.89A83 83 0 0 0 1038 396l.625-2c1.887-4.116 4.58-7.459 7.375-11 5.966.508 10.638 2.386 16 5-.795 3.776-1.844 5.633-5 8-2.75-.25-2.75-.25-5-1l1-4-3-1a466 466 0 0 0-2.5 3.375l-1.406 1.898c-1.272 1.668-1.272 1.668-1.094 3.727q2.653 1.259 5.313 2.5l2.988 1.406c2.677 1.282 2.677 1.282 5.699 1.094 1.738-1.98 1.738-1.98 3.355-4.594l1.885-2.87 1.947-3.036 1.983-3.035q2.43-3.724 4.83-7.465c3.961.617 7.091 1.858 10.668 3.652l3.205 1.604 3.314 1.682c1.106.55 2.211 1.102 3.35 1.67 8.196 4.125 8.196 4.125 10.463 6.392-.281 4.26-2.002 6.74-4.562 10.063-3.816 5.025-7.194 10.217-10.481 15.601C1087 426 1087 426 1084.687 426.8c-3.367.25-4.75-.535-7.628-2.257l-2.768-1.623-2.853-1.733-5.63-3.332-2.506-1.51A91 91 0 0 0 1057 413c.081 1.916.081 1.916 1 4 2.499 1.69 2.499 1.69 5.5 3.063 3.031 1.472 3.031 1.472 5.5 2.937l1 3c-1.617 2.883-1.617 2.883-3.875 6.125l-2.242 3.258C1062 438 1062 438 1061 439c-6.236-.31-10.727-2.635-16.125-5.625l-2.507-1.355q-2.505-1.354-5-2.723a993 993 0 0 0-8.338-4.502A1657 1657 0 0 1 1022 421c.473-5.182 3.177-8.665 6.063-12.812l1.431-2.1A882 882 0 0 1 1033 401l-2.086-.375c-14.104-3.025-14.104-3.025-17.39-7.746-.773-2.312-1.219-4.463-1.524-6.879l-.687-3.062c-.392-3.676-.377-7.242-.313-10.938"/><path fill="#6d5e00" d="M814 439v4h-3v3l1.66.766c7.295 3.848 13.158 8.886 18.34 15.234a272 272 0 0 0 8.477 6.754c2.522 2.245 3.966 4.273 5.523 7.246-3.161-1.37-3.993-1.99-6-5l-3 1 5 5-1 2-2.012-2.187-2.676-2.813-2.636-2.812c-2.471-2.425-2.471-2.425-5.508-2.5L825 469v-4l-1.992-.625c-4.159-1.901-7.526-4.59-11.133-7.375l-4.258-3.25c-.623-.48-1.245-.96-1.887-1.453-3.054-2.507-3.054-2.507-6.773-3.274l-2.144.352L793 450l2.055 1.434c6.734 4.784 12.919 9.919 18.945 15.566l-2 1c-2.125-.937-2.125-.937-4-2 .537 3.851 2.116 5.318 5.063 7.75l2.222 1.86L817 477l-1 2-2.125-1.977c-5.414-4.987-10.849-9.775-16.875-14.023 6.636 10.681 13.989 20.315 22 30l3-1v4c-3.875-.875-3.875-.875-5-2l-1 5c-3.53-1.307-5.228-3.4-7.527-6.297-2.818-3.259-6.195-5.922-9.473-8.703q-2.253-1.966-4.5-3.937l-2.031-1.778L791 477l1-4c-3-1.333-3-1.333-6 0l2 8c-1.977-1.78-3.31-3.479-4.766-5.73-2.35-3.44-4.904-6.416-7.734-9.457l-1.434-1.577c-3.696-4.019-3.696-4.019-8.066-7.236-3.192.226-3.192.226-6 1l.5 2.813C761 464 761 464 761 467l-2.23-1.715-2.957-2.223-2.918-2.214c-2.785-1.778-4.652-2.474-7.895-2.848v-4l1.828-.586 2.422-.789 2.39-.773c2.322-.78 2.322-.78 4.245-1.834 2.111-1.016 4.037-1.613 6.31-2.163l2.48-.606 2.665-.632 2.781-.664q2.919-.693 5.838-1.376c2.94-.693 5.874-1.406 8.809-2.12 9.88-2.351 19.017-4.304 29.232-3.457"/><path fill="#fce147" d="M892 545c1.938 1.188 1.938 1.188 3 3 .438 2.5.438 2.5 0 5-2.668 2.387-5.133 3.562-8.547 4.55-1.44.42-1.44.42-2.91.846l-3.293.917-3.585 1.008c-30.926 8.59-62.179 16.235-93.54 23.054l-2.622.58c-19.178 4.214-19.178 4.214-25.503 3.045-2-2-2-2-2.062-4.937C754 579 754 579 757.135 577.415c3.523-1.375 7.065-2.3 10.76-3.114l2.049-.46q2.24-.504 4.482-1c4.28-.948 8.554-1.926 12.828-2.904l2.913-.665c13.247-3.039 26.463-6.211 39.675-9.398q4.368-1.053 8.738-2.096 6.252-1.493 12.498-3.008l2.006-.487c8.845-2.157 17.573-4.517 26.163-7.547 4.395-1.511 8.11-2.08 12.753-1.736"/><path fill="#655601" d="m871.688 424.625 3.261-.086c3.702.56 5.357 1.932 8.051 4.461l-1 3-1-2c-1.43 2.354-2.087 3.48-1.625 6.25L880 438c-2.025-1.933-3.421-3.632-5-6-2.584-.25-2.584-.25-5 0l1.688 3c5.224 10.431 8.873 23.043 9.625 34.688.436 4.786 2.338 6.963 5.687 10.312h-3l-.375 2.375C883 485 883 485 881 487l-3-1 3-2c.724-2.06.724-2.06 1-4l-5-1 3-1-2-13-2 1c-.465 1.895-.465 1.895-.625 4.063L875 474h-1l-.7-3.883c-1.74-9.346-3.69-18.198-7.152-27.074-1.251-3.317-2.213-6.624-3.148-10.043l-6 1 1.426 3.184C867.6 457.804 867.6 457.804 867 464l-4-3v5c-2-1-2-1-3.078-4.21a818 818 0 0 1-1.172-4.165c-2.076-7.092-4.857-13.31-8.75-19.625h-5c0 2.644.973 3.926 2.3 6.21l1.464 2.524 1.548 2.641 1.514 2.617c2.705 4.72 2.705 4.72 5.905 9.1L859 463l-1 3-1-1 1 7c-2.335-2.257-4.187-4.28-6-7h-3c2.07 6.189 4.043 11.771 8 17-2.312-.562-2.312-.562-5-2-1.687-3.562-1.687-3.562-3-7l-2-1-1 3-.996-2.055C838.933 461.067 829.887 452.685 820 444c4.114 0 5.114 1.654 8.063 4.438 3.21 3.148 3.21 3.148 6.937 5.562-1.486-4.593-3.85-7.436-7-11 3.573 1.514 5.857 3.619 8.563 6.375l2.316 2.336C841 454 841 454 842.589 456.289L844 458h3a467 467 0 0 0-4.363-7.309 140 140 0 0 1-2.867-4.914c-1.23-2.185-1.23-2.185-3.77-4.777-2.9-.59-5.008-.355-8 0l1-4h-12c2.896-2.896 6.335-3.1 10.227-3.875l2.49-.515c2.634-.544 5.271-1.077 7.908-1.61q3.923-.803 7.844-1.61 2.44-.501 4.882-.995c3.69-.752 7.35-1.555 10.997-2.491 3.56-.881 6.68-1.235 10.34-1.279"/><path fill="#6f5f00" d="M711 463c-.375 2.938-.375 2.938-1 6l-2 1 1.723 1.215C719.83 478.656 725.537 486.848 729 499c.322 2.523.295 4.465 0 7h-1l-2-8h-1v9c-1.79-2.686-2.786-5.074-3.85-8.09-3.984-11.04-10.218-18.385-20.01-24.95-2.549-1.143-4.374-1.214-7.14-.96l-1 1 2.852 1.688c11.128 6.749 17.797 13.519 21.75 26.25.478 2.476.494 4.791.46 7.312l-.027 2.703L718 514h-1l-1-7-2 1c-.469 2.816-.469 2.816-.625 6.063l-.227 3.347L713 520h-1l-.113-2.676C711.217 505.1 709.515 495.85 702 486a63 63 0 0 0 2.063 6.938c.888 2.9 1.114 5.058.937 8.062-2.36-2.36-2.491-3.779-3-7l-2 1v24h-1l-.113-3.805c-.505-13.905-1.52-25.828-11.887-36.195-5.945.32-5.945.32-11 3h-2c-.466-3.914-.178-5.704 1.875-9.125 7.978-8.56 24.084-10.535 35.125-9.875"/><path fill="#635501" d="M1011 372h6q.729 2.027 1.438 4.063l.808 2.285c.754 2.652.754 2.652.922 6.218.5 3.7.5 3.7 3.887 5.614a99 99 0 0 0 3.82 1.695l1.934.89A83 83 0 0 0 1038 396l.625-2c1.887-4.116 4.58-7.459 7.375-11 5.966.508 10.638 2.386 16 5-.795 3.776-1.844 5.633-5 8-2.75-.25-2.75-.25-5-1l1-4-3-1a466 466 0 0 0-2.5 3.375l-1.406 1.898c-1.272 1.668-1.272 1.668-1.094 3.727l3 1v3l1.875.438C1052 404 1052 404 1054 405l-1 4c-5.11-1.145-9.372-2.455-14-5l-.805 2.2c-1.196 2.802-2.598 5.105-4.32 7.613l-1.633 2.394L1031 418l2 .754c3.757 1.56 7.367 3.357 11 5.183l2.117 1.053c3.724 1.866 7.344 3.805 10.883 6.01-2.49 1.245-3.41.777-6 0l-1 2 10 5c-4.567 1.142-5.087.809-9.035-1.316l-2.955-1.569-3.072-1.678-2.99-1.595c-2.991-1.6-5.97-3.218-8.948-4.842l-3.199-1.742A6349 6349 0 0 1 1022 421c.546-3.459 1.304-5.885 3.285-8.77l1.358-2.001 1.42-2.041 1.431-2.1A882 882 0 0 1 1033 401l-2.086-.375c-14.104-3.025-14.104-3.025-17.39-7.746-.773-2.312-1.219-4.463-1.524-6.879l-.687-3.062c-.392-3.676-.377-7.242-.313-10.938"/><path fill="#5f5101" d="M552 472c.742 4.658 1.387 9.323 2 14l.45 2.512c.613 5.443-1.572 8.598-4.825 12.8l-2.46 2.989c-2.373 2.765-2.373 2.765-4.165 6.699l15 9c-1.04 5.202-2.258 7.093-5.437 11.188l-2.434 3.167C548 537 548 537 546 539v-3h-5c1.557-4.671 4.084-8.087 7-12-4.02-3.449-8.245-5.932-12.875-8.437-5.322-2.883-10.256-5.959-15.125-9.563 3 0 3 0 6 1-.151-1.944-.151-1.944-1-4-2.072-1.351-2.072-1.351-4.562-2.25l-2.504-1.016L516 499v-1c5.585.444 8.882 1.838 13.438 5.063l3.183 2.222L535 507c7.405-6.52 7.405-6.52 11.191-15.164-.266-2.322-.695-4.552-1.191-6.836a159 159 0 0 1-.812-5.375l-.395-2.46C544 475 544 475 545.738 473.21 548 472 548 472 552 472"/><path fill="#706100" d="M863 433c6.62 14.856 12.147 29.469 11 46l-1.937.313L870 480l-1 3h-3l2 5-9 2c1-4 1-4 3-7l-1-1 .75-3.25.25-3.75c-2.333-2.667-2.333-2.667-5-5-.937-2.687-.937-2.687-1-5l2-2-1.25-1.914c-4.87-7.543-9.353-15.263-13.75-23.086l7-1c5.48 8.586 9.429 17.145 12 27l.375-1.937L863 460l2-1 1 3c-1.612-8.646-4.084-17.627-9-25v-3c3-1 3-1 6-1"/><path fill="#625301" d="M1039 404c4.143.598 7.182 2.007 10.813 4.063l2.957 1.66L1055 411v5l1.938.688a105 105 0 0 1 7.812 3.75c.779.41 1.557.822 2.36 1.246C1069 423 1069 423 1070 426c-1.582 2.883-1.582 2.883-3.812 6.125l-2.208 3.258C1062 438 1062 438 1060 439c-2.602-1.215-2.602-1.215-5.625-2.937l-3.04-1.715L1049 433l2-3h3l-3.254-1.61-4.309-2.14-2.134-1.055A227 227 0 0 1 1031 418c1.326-3.623 2.943-6.635 5.125-9.812l1.633-2.395z"/><path fill="#fbdf44" d="M494 517c4.64 1.64 8.639 4.069 12.813 6.625l2.1 1.273q2.545 1.546 5.087 3.102c-.404 5.333-3.426 8.721-6.562 12.813l-1.577 2.1A852 852 0 0 1 502 548c-2.953-.623-5.275-1.569-7.89-3.066l-2.15-1.221-2.21-1.275-2.258-1.288A1659 1659 0 0 1 482 538c0-4.236.274-4.877 2.625-8.11l1.64-2.285L488 525.25l1.734-2.402A858 858 0 0 1 494 517"/><path fill="#6c5d00" d="m830 436-2 5 2-1c2.8-.477 2.8-.477 6 0 2.07 2.213 3.57 4.118 5.188 6.625l1.287 1.871c2.5 3.695 4.616 7.462 6.525 11.504-5.64-1.327-8.156-3.807-11.75-8.062-3.195-3.988-3.195-3.988-7.25-6.938l2.5 2.25C835 450 835 450 835 454c-3.478-1.516-5.956-3.577-8.75-6.125l-2.422-2.195L822 444c2.603 2.622 5.22 5.22 7.902 7.762C843.983 465.249 843.983 465.249 846 475h-2l-3.246-4.086c-3.007-3.281-6.547-5.92-10.035-8.668-2.751-2.273-5.201-4.72-7.719-7.246a212 212 0 0 0-5.187-4.25l-2.606-2.078c-2.091-1.69-2.091-1.69-4.207-2.672v-3l2-1v-2h-9c6.048-6.048 18.085-4.188 26-4"/><path fill="#fae447" d="m662 504 1 5c-6.7 2.723-13.459 4.436-20.496 6.066l-3.6.848q-5.67 1.329-11.341 2.649-3.807.892-7.612 1.787A5780 5780 0 0 1 600 525l-2.641.622-2.394.554-2.044.477c-3.01.543-5.87.477-8.921.347l-1-5a847 847 0 0 1 29.45-7.453l3.942-.925q4.077-.954 8.155-1.905c3.478-.811 6.956-1.63 10.433-2.448q4.046-.951 8.094-1.894 2.856-.668 5.71-1.343l3.492-.81 3.066-.717C658 504 658 504 662 504"/><path fill="#6a5c00" d="m764 455 2.75.563c3.077.68 3.077.68 5.148-.301C774 455 774 455 776.305 456.703l2.57 2.547a176 176 0 0 0 13.813 11.875l1.892 1.47A1422 1422 0 0 0 799 476c-1.714-3.552-3.777-6.74-6-10l1-2h3c1.395 1.434 1.395 1.434 2.813 3.438l1.597 2.23a312 312 0 0 1 4.34 6.582c3.916 5.979 8.61 11.33 13.25 16.75l3-1v4c-3.875-.875-3.875-.875-5-2l-1 5c-3.53-1.307-5.228-3.4-7.527-6.297-2.818-3.259-6.195-5.922-9.473-8.703q-2.253-1.966-4.5-3.937l-2.031-1.778L791 477l1-4c-3-1.333-3-1.333-6 0l2 8c-1.978-1.78-3.314-3.484-4.773-5.734-2.32-3.401-4.821-6.37-7.602-9.391l-1.383-1.55c-3.155-3.448-6.349-5.833-10.242-8.325z"/><path fill="#f9e548" d="M990 430v5a103 103 0 0 1-11.875 3.373l-3.441.759-3.684.802-3.842.844q-5.051 1.11-10.104 2.21-5.073 1.111-10.144 2.225c-12.855 2.82-12.855 2.82-18.413 4.024a980 980 0 0 0-7.45 1.656l-3.863.861-3.518.795L911 453c-1-1-1-1-1.062-3.562L910 447c11.818-3.043 23.694-5.776 35.61-8.41q4.428-.98 8.857-1.967c8.384-1.862 16.77-3.712 25.185-5.432l3.465-.708C986 430 986 430 990 430"/><path fill="#fae245" d="M1076 391c4.093 1.539 7.895 3.441 11.75 5.5l3.484 1.844C1094 400 1094 400 1095 402l-11 16c-5.311-.885-7.831-1.706-12.312-4.312l-3.176-1.801C1066 410 1066 410 1064.91 408.113c.14-3.305 1.843-5.035 3.84-7.613l2.172-2.844L1073 395a970 970 0 0 0 3-4"/><path fill="#635400" d="M746.758 457.625c4.058.47 5.917 1.878 9.117 4.375l2.93 2.25L761 466l-2-7c4.113 1.65 6.98 4.611 10.125 7.625 4.803 4.544 9.713 8.733 15.047 12.656 2.048 1.926 2.49 2.967 2.828 5.719v2c1.557 1.578 1.557 1.578 3.5 3.125l1.969 1.633L794 493l-1 2-2.562-2.195C784.423 487.672 778.404 482.646 772 478c.181 3.438.181 3.438 1 7a89 89 0 0 0 4 2c1.922 1.945 1.922 1.945 3.75 4.125l1.86 2.195L784 495c-3 0-3 0-4.687-1.5L778 492c-3.115 3.375-3.097 5.52-3 10-1.961 1.961-3.504 2.873-6 4h-1v-18l-4-2c-1.75-1.5-1.75-1.5-3-3v-2c6.625-.25 6.625-.25 10 2v-2l-3-1-1.125-3.062c-2.091-5.36-6.492-8.435-10.875-11.938l-1.898-1.617c-4.082-3.27-6.937-3.91-12.102-3.383 2-2 2-2 4.758-2.375"/><path fill="#fce045" d="M953 388c10.559-.87 20.127.887 28.934 7.055 5.136 4.411 8.874 8.986 12.066 14.945v1l-2.047.367-2.703.508-2.672.492c-2.57.53-2.57.53-4.719 1.703C980 415 980 415 977 415l-1.031-2.344c-4.987-10.717-10.744-16.824-21.063-22.527L953 389z"/><path fill="#5f5200" d="M692 475c7.095 1.316 14.04 6.262 18.438 11.875 4.623 6.869 7.734 14.048 7.625 22.375l-.028 2.703L718 514h-1l-1-7-2 1c-.469 2.816-.469 2.816-.625 6.063l-.227 3.347L713 520h-1l-.113-2.676C711.217 505.1 709.515 495.85 702 486a63 63 0 0 0 2.063 6.938c.888 2.9 1.114 5.058.937 8.062-2.36-2.36-2.491-3.779-3-7l-2 1v24h-1l-.113-3.805c-.505-13.905-1.52-25.828-11.887-36.195a89 89 0 0 0-4-2h8z"/><path fill="#fbe74a" d="M518 506c3.315.66 5.85 1.9 8.773 3.582l2.75 1.576 2.852 1.654 2.828 1.62c4.71 2.711 9.325 5.48 13.797 8.568-2.384 4.342-4.781 8.206-8 12-5.967-1.57-10.83-4.75-16-8l.875-1.687c1.16-2.384 2.14-4.852 3.125-7.313l-13-7z"/><path fill="#fae746" d="M737.25 466.5A236 236 0 0 1 742 470l2.695 2.004c9.422 7.238 9.422 7.238 10.977 13.855 1.02 9.768.968 18.932-2.672 28.141l-5 1 .484-2.36c.659-4.648.74-9.2.766-13.89l.063-2.7c.036-6.35-.756-12.184-3.313-18.05-3.59-3.59-6.22-5.01-11.187-5.25-5.195-.513-7.909-2.344-11.813-5.75v-2c5.54-1.705 9.341-1.695 14.25 1.5"/><path fill="#fae547" d="M696.293 471.66c7.637.959 15.153 8.965 19.922 14.684 6.9 10.268 8.863 21.552 9.785 33.656l-7 2-.078-2.605C718.334 507.14 716.037 494.713 708 485c-3.15-2.668-6.48-4.853-10-7a451 451 0 0 1-3.625-2.437L692 474c2-2 2-2 4.293-2.34"/><path fill="#fbe546" d="M685.25 478c5.022 1.826 7.703 5.84 9.984 10.547 2.764 6.77 3.93 12.372 3.891 19.703l.012 2.2c-.01 4.93-.441 9.668-1.137 14.55l-5 1-.06-1.677c-.452-21.976-.452-21.976-9.94-41.323v-2h-2v-2c2-1 2-1 4.25-1"/><path fill="#f9e84a" d="M875 431.582c7.68 5.445 9.994 20.694 12 29.418l.602 2.574c.457 2.784.494 5.419.46 8.238l-.027 2.958L888 477l-4 1c-2.968-3.313-3.454-5.808-3.875-10.187C878.642 455.976 875.101 444.77 870 434v-2c3-1 3-1 5-.418"/><path fill="#f9e548" d="M1039 404c4.143.598 7.182 2.007 10.813 4.063l2.957 1.66L1055 411l-1 5c-4.973-.497-8.638-1.553-13-4l-2 7 2.688.313c3.418.709 5.354 1.912 8.312 3.687l3 .5c3.277.546 5.27 1.654 8 3.5l-2 4c-4.806-.626-8.625-2.624-12.875-4.812l-2.066-1.042c-4.434-2.25-8.76-4.648-13.059-7.146 1.326-3.623 2.943-6.635 5.125-9.812l1.633-2.395z"/><path fill="#655601" d="M947 432v4l4 2q-6.131 1.48-12.268 2.936-2.08.495-4.16.998c-7.82 1.888-15.51 3.606-23.572 4.066l4-2-2-1-1-2h-6l-2-7c1.5 1.313 1.5 1.313 3 3v3l2.06-.519q4.689-1.18 9.378-2.356l3.24-.816C940.04 431.704 940.04 431.704 947 432"/><path fill="#6b5b01" d="M454 540c2.625 1.563 2.625 1.563 4 4 .077 4.234-.58 6.397-3 9.875-3.855 2.73-7.295 3.453-12 3.125-3.734-1.469-3.734-1.469-5-4-.404-2.964-.564-5.089 1.047-7.691 4.503-5.497 8.103-6.16 14.953-5.309"/><path fill="#615300" d="M696 470c2.354.589 4.69 1.257 7 2h3v-2c9.58 3.367 15.684 11.09 20 20 2.351 5.45 3.378 10.074 3 16h-1l-2-8h-1v9c-1.79-2.686-2.786-5.074-3.85-8.09-4.13-11.445-11.07-20.328-22.15-25.91-3.347-.94-3.347-.94-6-1z"/><path fill="#f7e446" d="M863 433c6.62 14.856 12.147 29.469 11 46-1.937.563-1.937.563-4 1-1.653-1.653-1.331-3.741-1.544-5.964-1.22-12.445-4.398-24.142-10.538-35.118C857 437 857 437 857 434c3-1 3-1 6-1"/><path fill="#f9e344" d="M803.797 449.723q2.269 1.796 4.533 3.597c2.378 1.887 4.715 3.709 7.275 5.344 7.326 4.786 9.152 11.21 11.395 19.336-2.977-1.327-4.918-2.74-7.125-5.125-3.488-3.592-7.243-6.666-11.18-9.754-3.798-2.989-7.52-6.068-11.25-9.14A179 179 0 0 0 791 449c8.478-1.938 8.478-1.938 12.797.723"/><path fill="#f8e246" d="M734 477c4.79.758 4.79.758 6.688 2.938 5.262 12.28 3.664 24.511.312 37.062l-7 1 .984-2.832c1.4-4.922 1.315-9.772 1.266-14.856l-.012-2.941c-.084-6.966-.632-13.573-2.238-20.371"/><path fill="#f9e448" d="m496 524 10 5 2-3-3-1 2-1c2.475 1.114 4.679 2.582 7 4-.404 5.333-3.426 8.721-6.562 12.813l-1.577 2.1A852 852 0 0 1 502 548c-2.953-.623-5.275-1.569-7.89-3.066l-2.15-1.221-2.21-1.275-2.258-1.288A1659 1659 0 0 1 482 538v-4l2-1-1 4 2.188.813C488 539 488 539 490.563 540.688c2.302 1.538 2.302 1.538 4.625 1.062 3.132-1.183 3.132-1.183 4.812-4l1-2.75 2-5-7-4-.875 1.938C494 530 494 530 492 531c1.074-2.915 1.778-4.778 4-7"/><path fill="#fbe545" d="M821 444c2.323 1.775 4.308 3.469 6.375 5.5l1.715 1.642c6.896 6.67 13.141 12.907 16.91 21.858v2h-2l-3.246-4.086c-3.007-3.281-6.547-5.92-10.035-8.668-2.751-2.273-5.201-4.72-7.719-7.246a212 212 0 0 0-5.187-4.25l-2.606-2.078c-2.091-1.69-2.091-1.69-4.207-2.672v-2c3.645-1.262 6.29-.995 10 0"/><path fill="#5b4d01" d="m764 455 2.75.563c3.077.68 3.077.68 5.148-.301C774 455 774 455 776.305 456.703l2.57 2.547a176 176 0 0 0 13.813 11.875l1.892 1.47A1422 1422 0 0 0 799 476l-3 2 2.125 2.063c3.154 3.145 6.014 6.526 8.875 9.937-4.124-1.662-7.066-4.623-10.25-7.625l-1.68-1.562Q793.03 478.91 791 477l1-4c-3-1.333-3-1.333-6 0l2 8c-1.978-1.78-3.314-3.484-4.773-5.734-2.32-3.401-4.821-6.37-7.602-9.391l-1.383-1.55c-3.155-3.448-6.349-5.833-10.242-8.325z"/><path fill="#fae646" d="M717 469c8.417 5.45 11.887 12.46 14 22 .07 2.76.094 5.492.063 8.25l-.014 2.258q-.02 2.745-.049 5.492c-2.17-3.254-2.763-5.719-3.687-9.5-2.796-9.997-7.389-17.56-15.516-24.062-1.727-1.382-3.263-2.847-4.797-4.438 3.71-1.237 6.367-1.339 10 0"/><path fill="#6a5a01" d="M1128.313 389.563C1130 391 1130 391 1131 394.313c0 3.687 0 3.687-1.812 6.562-3.02 2.933-3.736 3.096-8.063 3.375-2.704-.05-4.115-.246-6.625-1.375-1.5-1.875-1.5-1.875-2.062-4.75.736-4.09 2.418-5.505 5.562-8.125 3.371-1.686 6.714-1.313 10.313-.437"/><path fill="#f8e046" d="M588 481h2l.516 2.309c1.39 5.922 2.965 11.317 5.714 16.753C597 502 597 502 597 506c-4.875-1.875-4.875-1.875-6-3-4.016.227-6.323.427-9.437 3.063L580 508c.238-9.4 2.753-19.129 8-27"/><path fill="#fbe447" d="M666 490c2.25-.375 2.25-.375 5 0 7.056 7.47 7.345 18.865 7.105 28.578L678 521l-5 2a53263 53263 0 0 1-4.59-21.387l-.746-3.475A604 604 0 0 1 666 490"/><path fill="#f9e243" d="M771 477c11.023 6.648 21.91 15.157 29 26-3.414 2.073-3.414 2.073-5.92 1.761-2.514-.92-3.748-2.086-5.611-4l-1.957-1.986-2.012-2.087-2.012-2.053a707 707 0 0 1-3.821-3.931 115 115 0 0 0-4.058-3.919c-2.65-2.94-2.844-5.96-3.609-9.785"/><path fill="#fce342" d="M796 462c5.003 3.028 9.156 6.736 13.46 10.684 2.927 2.67 5.926 5.246 8.946 7.808C820 482 820 482 822 485c-.031 2.74-.555 5.284-1 8-3 0-3 0-5.383-2.352a207 207 0 0 1-2.742-3.273l-1.459-1.75C805.514 478.394 799.992 470.46 796 462"/><path fill="#6a5c00" d="M524 529c5.066.82 9.389 2.793 14.063 4.844 2.669 1.05 5.114 1.7 7.937 2.156v3l2.188.313c3.168.774 5.234 1.682 7.812 3.687.813 2.688.813 2.688 1 5-3 1-3 1-5.016.004l-2.234-1.442c-4.266-2.527-6.858-3.082-11.75-2.562l-.059-1.734c-1.49-3.589-4.716-4.78-8.004-6.516l-2.01-1.102A477 477 0 0 0 523 532z"/><path fill="#594c01" d="m1023 416 2 1-1 3 7 3 1-4c5.004 1.516 9.532 3.6 14.188 5.938l2.154 1.052 2.076 1.037 1.868.93c1.87 1.138 3.23 2.443 4.714 4.043l-6-1-1 2 10 5c-4.567 1.142-5.087.809-9.035-1.316l-2.955-1.569-3.072-1.678-2.99-1.595c-2.991-1.6-5.97-3.218-8.948-4.842l-3.199-1.742A6349 6349 0 0 1 1022 421z"/><path fill="#f9e245" d="m546 521 3 3-8 11c-4.174-1.391-7.192-2.504-10.875-4.625l-2.367-1.352L526 528c.813-1.937.813-1.937 2-4l3-1v4h2l1-5c7.68-2.56 7.68-2.56 12-1"/><path fill="#fae246" d="M700 485c3.806 1.47 5.173 3.385 7.188 6.875l1.542 2.617c2.011 3.972 2.393 7.28 2.368 11.711l-.01 2.969-.025 3.078-.014 3.125q-.018 3.813-.049 7.625l-5 1-.028-2.104c-.125-19.036-.125-19.036-5.972-36.896"/><path fill="#f8e241" d="M769.824 459.34c7.28 6.243 14.546 13.234 17.176 22.66-5.502-3.92-10.55-8.195-15.531-12.754-2.906-2.643-5.88-5.197-8.875-7.738C761 460 761 460 759 457c4.797-1.332 6.886-.553 10.824 2.34"/><path fill="#f9e747" d="M783 454c7.52 5.792 12.695 14.26 18 22-3.449 0-3.916-.446-6.477-2.562l-2.021-1.656-2.127-1.782-2.166-1.792A981 981 0 0 1 782 463l-3.055-2.574c-4.463-3.857-4.463-3.857-5.945-5.426v-2c4.118-1.177 6.168-.84 10 1"/><path fill="#f9e749" d="M544 483c2.475 2.475 3.193 4.678 3.578 8.137-1.338 6.628-7.2 11.938-11.578 16.863l-2.344-1.39c-5.8-3.417-11.59-6.693-17.656-9.61 2.951-1.253 3.974-1.01 7.016.215l3.234 1.723 3.266 1.714L532 502l-1-3h4c3.538-4.145 4.57-7.619 5-13l1 4h3z"/><path fill="#f8e346" d="M850 437c6.938 7.672 10.348 18.9 11 29-7.92-7.301-12.753-18.664-18-28 2.586-1.293 4.135-1.375 7-1"/><path fill="#f8ec4d" d="M761 483c7 5 7 5 8 7 .756 7.429-.75 13.955-3 21l-5 1z"/><path fill="#f6e144" d="M896.96 436.465c3.098 2.332 3.67 5.508 4.665 9.098l.641 2.188C906 460.677 906 460.677 906 467h-4q-1.978-5.809-3.937-11.625l-1.131-3.316-1.084-3.223-1-2.952c-.867-2.95-1.404-5.844-1.848-8.884 2-1 2-1 3.96-.535"/><path fill="#f6e94a" d="m754.754 463.023 2.808 2.352 2.817 2.336c4.588 4.006 6.798 6.429 8.621 12.289l2 1v2c-3.404-1.581-5.924-3.605-8.738-6.09-3.41-2.88-6.98-5.548-10.555-8.219-3.54-2.678-6.644-5.497-9.707-8.691 5.4-1.543 8.297-.25 12.754 3.023"/><path fill="#534601" d="M1049.188 382.938c4.514 1.258 8.607 3.012 12.812 5.062-.795 3.776-1.844 5.633-5 8-2.75-.25-2.75-.25-5-1l1-4-3-1-5 5 1-4c-2.169.506-4 1-6 2 3.411-9.95 3.411-9.95 9.188-10.062"/><path fill="#645700" d="M494.723 511.04c4.055 1.188 7.105 3.056 10.59 5.397l1.916 1.237c4.629 3.041 4.629 3.041 5.771 5.326l-1 2c-6.093-1.59-10.9-3.303-16-7h-2l-2 2-3 1-2-4c4.172-6.012 4.172-6.012 7.723-5.96"/><path fill="#f8e444" d="M790 477c3.822 1.6 6.429 4.062 9.438 6.875 2.691 2.508 5.354 4.96 8.234 7.25 2.963 2.386 5.027 4.85 7.328 7.875v2c-6.949.759-6.949.759-9.595-1.151-1.48-1.67-2.762-3.388-4.03-5.224l-1.41-1.915c-3.649-5.031-6.985-10.254-9.965-15.71"/><path fill="#5c4f01" d="M1036 431c3.125.375 3.125.375 6 1-.612 3.92-2.537 6.416-4.875 9.563l-2.117 2.878c-3.167 4.036-3.167 4.036-5.008 5.559-2.187-.312-2.187-.312-4-1-.54-4.778 1.008-6.948 3.875-10.687l2.18-2.887C1034 433 1034 433 1036 431"/><path fill="#5a4d00" d="M760 483c2.478 2.478 2.257 3.236 2.266 6.648l.007 2.797-.023 2.93.023 2.906-.007 2.805-.007 2.564c-.278 2.525-.991 4.167-2.259 6.35l-1-2-5 5 2-26h3z"/><path fill="#fae043" d="m605 535 .734 1.906c2.165 5.527 4.534 10.825 7.266 16.094-6.28-1.487-13.756-5.472-17.297-11.04C595 540 595 540 595 537c3.62-1.316 6.096-2 10-2"/><path fill="#695b00" d="M1098 405c-1.037 2.938-2.188 5.278-3.937 7.875-2.185 3.094-2.185 3.094-3.563 6.75-1.477 3.324-2.566 5.241-5.5 7.375-2.66-.08-3.68-.704-5.625-2.5L1078 423l-2-1v-2l2.25-.437L1081 419l1.953-.23c2.978-1.12 3.857-2.995 5.547-5.645 5.211-8.125 5.211-8.125 9.5-8.125"/><path fill="#534501" d="M856 436c3.716 3.2 5.46 6.694 7.188 11.188l.791 2.01c1.877 4.957 2.834 9.478 3.021 14.802l-4-3v5c-2-1-2-1-3.148-4.316q-.622-2.121-1.227-4.247c-1.367-4.63-2.714-9.034-5-13.312L852 441l1-2 5 8-1-3h2l-1.5-2.875C856 438 856 438 856 436"/><path fill="#675a00" d="M518 498.938c3.05 1.08 5.46 2.045 8 4.062v4l-2.812-.687c-3.071-.623-3.071-.623-4.938.75-1.624 2.516-2.422 5.07-3.25 7.937l-6-3c.36-5.996 1.834-12.913 9-13.062"/><path fill="#645601" d="M539 484c1.721 7.515 1.721 7.515-.047 11.156-1.39 1.906-1.39 1.906-3.953 4.844-3.112-1.498-6.053-3.2-9-5q1.366-1.913 2.75-3.812c.51-.708 1.02-1.416 1.547-2.145 2.681-3.216 4.421-5.043 8.703-5.043"/><path fill="#f8ed4d" d="M836 440c2.07 2.213 3.57 4.118 5.188 6.625l1.287 1.871c2.5 3.695 4.616 7.462 6.525 11.504-5.33-1.281-8.153-3.757-11.625-7.812l-1.406-1.58c-2.76-3.122-5.392-6.335-7.969-9.608 2.953-1.477 4.725-1.488 8-1"/><path fill="#564901" d="M792 451c3.74.6 5.856 2.238 8.75 4.625l2.633 2.164A503 503 0 0 1 814 467l-2 1c-2.125-.937-2.125-.937-4-2 .537 3.851 2.116 5.318 5.063 7.75l2.222 1.86L817 477l-1 2-2.125-1.977c-5.414-4.987-10.849-9.775-16.875-14.023l1-2 2 1c.039-2.335.039-2.335-1-5-1.746-1.515-3.554-2.745-5.504-3.984L792 452z"/><path fill="#fae74b" d="M1079 393c5.402 1.524 10.315 3.923 15 7l1 2-11 16-2-1 1.5-2.375c1.665-2.41 1.665-2.41 1.5-4.625h-3l.938-2.25c1.106-2.624 1.106-2.624 1.5-5L1085 401l3-1c-2.191-1.704-4.356-3.21-6.75-4.625L1079 394z"/><path fill="#fcde04" d="M1013 344c2 1 2 1 4 4 2.656.583 2.656.583 5.625.688l3.04.199L1028 349v1l-29 1v1l-30-1 1-3 2 1 1-2 2 2c3.253.36 3.253.36 6.938.313l3.777.05c3.26-.069 3.26-.069 5.226-1.883L992 346l1 2-1 2 7-4 2 2c4.336.315 6.327.449 10-2h2z"/><path fill="#574a00" d="M709 487c5.062 4.158 7.786 10.638 9 17q.098 2.624.063 5.25l-.028 2.703L718 514h-1l-1-7-2 1c-.469 2.816-.469 2.816-.625 6.063l-.227 3.347L713 520h-1l-.113-2.676c-.429-7.826-1.465-14.873-3.887-22.324l-1.187-3.687L706 489c2.5 2.174 3.436 3.73 4 7l2-2-1.5-2.375C709 489 709 489 709 487"/><path fill="#584a01" d="M546 553c3.791 1.45 7.387 3.152 11 5l-1 7c-5.07-.654-9.42-2.855-14-5 1.074-2.915 1.778-4.778 4-7"/><path fill="#5a4d01" d="M1026 378c5.348.535 9.358 2.467 14 5-.573 2.867-.861 3.861-3 6-3.98-.354-7.357-1.393-11-3z"/><path fill="#6d5f00" d="M1068 424c-.65 3.51-2.154 5.972-4 9l-1.062 2.75C1062 438 1062 438 1060 439c-2.602-1.215-2.602-1.215-5.625-2.937l-3.04-1.715L1049 433l2-3 9 1 1.875-2.937C1064.694 424 1064.694 424 1068 424"/><path fill="#f9e142" d="M848 464c2.23.133 2.23.133 5 1 2.238 2.617 2.238 2.617 4.313 5.875l2.113 3.242C861 477 861 477 861 480l-5 1c-3.865-4.003-8-11.203-8-17"/><path fill="#5b4c00" d="m730 487 1 2h6c.058 3.562.094 7.125.125 10.688.017 1.007.034 2.014.05 3.052l.02 2.96.032 2.713c-.25 2.849-1.047 4.996-2.227 7.587-1.142-3.427-.909-5.611-.562-9.187l.308-3.293L735 501h-1l-2 7h-1z"/><path fill="#544901" d="M496 526c2.972 1.125 5.334 2.223 8 4-1.25 3.46-2.675 6.147-5 9-2.972-1.125-5.334-2.223-8-4 1.25-3.46 2.675-6.147 5-9"/><path fill="#756600" d="M879 464q.543 2.904 1.063 5.813l.597 3.269C881 476 881 476 880 479l2 1-1 5-5 1c-1.854-6.72-1-14.068-1-21 3-1 3-1 4-1"/><path fill="#574801" d="M767 466c3.8 1.6 6.428 4.028 9.438 6.813l2.808 2.582L782 478l2.848 2.574C787 483 787 483 787 487c1.51 1.778 1.51 1.778 3.5 3.25l1.969 1.578L794 493l-1 2a4104 4104 0 0 1-6.25-5.25l-1.777-1.488c-3.13-2.637-6.133-5.309-8.973-8.262l3-2q-2.435-2.222-4.875-4.437l-2.742-2.497c-2.194-2.075-2.194-2.075-4.383-3.066z"/><path fill="#fae145" d="M829 468a351 351 0 0 1 5.105 4.36 203 203 0 0 0 4.895 4.077c2 2.563 2 2.563 1.813 6.375L840 486c-3 0-3 0-5.5-1.687-4.095-4.232-4.497-10.744-5.5-16.313"/><path fill="#fdef4e" d="M750 488h1l2 10h2c.354 6.518.039 11.175-3 17l-4-1 .48-2.182c.493-2.67.72-5.19.836-7.9l.127-2.822.12-2.909.13-2.966q.159-3.61.307-7.221"/><path fill="#514400" d="M734 475c2.25.125 2.25.125 5 1 2.438 3.134 4.338 6.399 6 10 .845-3.378 1.108-5.675 0-9 2.653 2.422 3.848 4.245 4.168 7.938l.02 2.062.042 2.063C749 491 749 491 747 494v-3h-2v15h-1l-.332-3.875-.48-5.125-.213-2.543c-.652-6.73-1.51-13.164-6.663-17.957z"/><path fill="#5d5101" d="m1077 399 9 3c-1.312 3.937-2.92 6.227-6 9l-7-4c1.125-2.972 2.223-5.334 4-8"/><path fill="#f9ea4c" d="M549 548c4.827 1.413 8.716 3.43 13 6-.887 2.662-1.914 5.131-3.062 7.688l-1.098 2.449L557 566c-6.247.822-10.713-2.074-16-5l1-2 14 6 1-7-5-2 2-1 2 1c-1.46-3.85-3.463-5.045-7-7z"/><path fill="#fbf152" d="M700 485c5.438 2.128 7.622 6.918 10 12 .375 3.625.375 3.625 0 6h-1l-1 17h-1l-.12-1.737c-1.21-17.15-1.21-17.15-6.88-33.263"/><path fill="#f7e648" d="M507 507c1.245 2.49.777 3.41 0 6l2.5.688c4.231 1.586 7.752 3.82 11.5 6.312l-2 4a1129 1129 0 0 1-6.875-3.812l-1.973-1.08c-3.218-1.809-5.072-2.988-7.152-6.108h2l.438-2.437C506 508 506 508 507 507"/><path fill="#605301" d="M591.165 617.773q2.015.001 4.03.032l2.144.008c2.262.011 4.524.037 6.786.062q2.299.016 4.598.027 5.638.035 11.277.098v1l-16 1 10 1c-2.55 2.55-4.235 2.26-7.717 2.273l-2.22-.023-2.21.023c-3.811-.014-5.611-.112-8.853-2.273a128 128 0 0 0-7-1c2-2 2-2 5.165-2.227"/><path fill="#4f4101" d="M713 475c7.395 3.155 11.041 10.492 13.938 17.625 1.685 4.697 2.638 8.42 2.062 13.375h-1l-2-8h-2c-1-3-1-3 0-6-2.343-5.759-5.385-9.899-9.61-14.434C713 476 713 476 713 475m7 18c4.342 4.342 4.744 8.136 5 14-1.623-2.434-2.617-4.313-3.625-7l-.79-2.062C720 496 720 496 720 493"/><path fill="#f0c802" d="M539 619h35v1l-2.75.375c-3.15.435-3.15.435-5.312 1.75-2.617 1.182-4.224.608-6.938-.125h-1l-2 2v-2h-5v2h-7v-3l-5-1z"/><path fill="#554901" d="m1071 386 1 2c-.937 2.625-.937 2.625-2 5l5-2c-1.557 4.671-4.084 8.087-7 12l-5-3c1.326-3.623 2.943-6.635 5.125-9.812l1.633-2.395z"/><path fill="#fddd40" d="M763 487c1.977 1.11 1.977 1.11 4 3a39.55 39.55 0 0 1-2 20h-2c-1.029-7.072-1.848-14.019 0-21z"/><path fill="#f7eb4c" d="M696.293 471.66c8.114 1.019 15.181 9.505 20.441 15.262C718 489 718 489 717.704 491.266L717 493l-.848-1.54c-3.042-5.223-6.367-8.803-11.152-12.46l-2.312-1.875c-1.627-1.31-1.627-1.31-3.688-1.125l5 3-1 2-11-7c2-2 2-2 4.293-2.34"/><path fill="#524501" d="M795 463c4.219 2.993 6.488 6.037 9.063 10.5 2.33 4.025 4.485 7.363 7.937 10.5l-1 2q-1.722-1.935-3.437-3.875l-1.934-2.18C804 478 804 478 803 476h-3c-1.824-2.187-1.824-2.187-3.687-5l-1.887-2.812L793 466c1-2 1-2 2-3"/><path fill="#f7de41" d="M735.875 465.313 738 467v3c-6.822 2.513-6.822 2.513-10.09 1.09-1.808-1.269-3.414-2.463-4.91-4.09v-2c4.581-1.41 8.457-1.704 12.875.313"/><path fill="#f9d93e" d="M883 457c3.612 3.612 3.16 7.694 3.188 12.625l.042 3.477C886 476 886 476 884 478c-3.355-3.532-3.378-6.297-3.312-11.062l.011-3.723C881 460 881 460 883 457"/><path fill="#fcee4f" d="M768 458v7c.552.235 1.103.47 1.672.71 2.921 1.618 5.124 3.655 7.578 5.915l2.703 2.477L782 476l-1 2-2.344-2.16-3.156-2.902-1.65-1.518a366 366 0 0 0-11.327-9.983C761 460 761 460 759 457c3.779-1.05 5.65-1.11 9 1"/><path fill="#544701" d="M1049.813 439.188 1052 440c-.576 3.89-2.282 6.206-5 9-2.939.98-4.208 1.396-7 0 1.54-4.901 4.088-10.194 9.813-9.812"/><path fill="#f7e343" d="M775 496c4.043 4.043 5.82 6.067 8 11l-11 3z"/><path fill="#574901" d="M831 463c3.4 1.501 5.914 3.476 8.688 5.938l2.386 2.09C844 473 844 473 845 476c-3.161-1.37-3.993-1.99-6-5l-3 1 5 5-1 2-11-11 2-1z"/><path fill="#f7ec4b" d="M816 448c7.405 2.083 12.733 8.733 18 14 3.87 3.851 3.87 3.851 9 5 3 5.75 3 5.75 3 8h-2l-3.246-4.086c-3.007-3.281-6.547-5.92-10.035-8.668-2.751-2.273-5.214-4.708-7.719-7.246-1.856-1.623-3.745-3.194-5.645-4.766L816 449z"/><path fill="#f9ee53" d="M1087 388c5.862 1.584 13.627 4.627 18 9-.242 5.928-2.18 10.418-6 15h-2l-.812 2.375C1095 417 1095 417 1092 419c1.72-5.084 4.779-9.051 7.986-13.271 2.378-3.079 2.378-3.079 2.838-6.786-1.468-3.461-5.164-4.607-8.387-6.193l-2.154-1.102A519 519 0 0 0 1087 389z"/><path fill="#fcf453" d="M675 472c1.316 2.633.748 3.802.063 6.625l-.59 2.477L674 483l-1.758.297c-5.194.994-9.22 2.064-13.242 5.703-.858 1.978-.858 1.978-1.5 4.125-1.17 3.703-1.17 3.703-4.375 5.375-2.79.446-5.309.666-8.125.5 3.445-2.296 5.938-2.54 10-3l.125-3.187c.89-3.874 1.731-5.392 4.91-7.747 3.755-2.038 7.833-3.062 11.965-4.066l.375-2.812C673 475 673 475 675 472"/><path fill="#6e6000" d="M495.188 511.063C498 512 498 512 500 513c-1.379 2.757-3.375 3.463-6 5l-2 2-3 1-2-4c4.174-6.016 4.174-6.016 8.188-5.937"/><path fill="#faee50" d="M611 517c-4.33 1.3-8.515 2.344-13 3v3l3.688-1c3.184-.803 6.01-1.206 9.312-1-2.72 2.72-5.065 2.848-8.812 3.625-1.224.26-2.447.52-3.708.79-2.928.492-5.525.709-8.48.585 8.284-8.284 8.284-8.284 12.375-9.187l2.336-.543c2.4-.283 4.006-.005 6.289.73"/><path fill="#564900" d="M846 444c3.29 2.797 5.063 6.195 7 10l-1 2-2-2-4 2a351 351 0 0 1-2.562-3.875l-1.442-2.18L841 448l1-2 2 2 2-2z"/><path fill="#f9eb4e" d="M1020 380c2 3 2 3 2.375 5.563.383 2.564.383 2.564 2.5 3.812 2.28.89 2.28.89 5.125-.375l-2-2 1.863.219 2.45.281 2.425.281c2.381.267 2.381.267 5.262.219-1.187 1.5-1.187 1.5-3 3-2.687.188-2.687.188-5 0v2l2 1c-5.375-.403-10.194-2.1-14-6-.711-2.953-.417-4.926 0-8"/><path fill="#f9e444" d="M519 507a563 563 0 0 1 6 3.313l3.375 1.863L531 514v3c-5.853-.45-10.082-3.038-15-6z"/><path fill="#594a01" d="M879 463c2.396 2.396 2.207 2.993 2.313 6.25.424 5.059 2.147 7.21 5.687 10.75h-3l-.375 2.375C883 485 883 485 881 487l-3-1 3-2c.724-2.06.724-2.06 1-4l-5-1 3-1z"/><path fill="#f9e948" d="m754.86 463.094 2.89 2.406 2.922 2.406C763 470 763 470 764 472c-2.749-1.21-4.914-2.713-7.25-4.562-2.729-2.024-4.616-2.752-8-3C745 464 745 464 743 461.938L742 460c5.462-1.56 8.351-.207 12.86 3.094"/><path fill="#8d7a01" d="m1060 350 1 2h14v2c-9.596.239-18.531-.212-28-2v-1z"/><path fill="#fae847" d="M845 484c4.742 2.432 4.742 2.432 5.938 5.063L851 491c-2 2-2 2-4.625 2.125L844 493c-1.187-1.687-1.187-1.687-2-4 1.375-2.75 1.375-2.75 3-5"/><path fill="#947f01" d="M460 608c7.478.488 14.69 1.334 22 3v2q-2.625-.214-5.25-.437l-2.953-.247c-2.362-.267-4.516-.67-6.797-1.316v3l3 1h-5l1-5h-5z"/><path fill="#5a4d00" d="M548 525v5a89 89 0 0 0 2 4l-4 5v-3h-5c1.486-4.593 3.85-7.436 7-11"/><path fill="#f8ec4c" d="M826 488c5.662 2.462 5.662 2.462 7.375 5.188L834 495c-3.371 1.498-5.204 2-9 2z"/><path fill="#473a00" d="M709 487c3.332 2.987 5.348 5.827 7 10-.312 2.375-.312 2.375-1 4l-2-2-1 6c-1.537-2.99-2.903-6.018-4.187-9.125l-1.106-2.633C706 491 706 491 707 489c3 4.75 3 4.75 3 7l2-2-1.5-2.375C709 489 709 489 709 487"/><path fill="#c1a301" d="m991 346 2 2-1 2 7 1v1l-30-1 1-3 2 1 1-2 2 2c3.287.359 3.287.359 7 .313l3.813.05L989 349z"/><path fill="#f9db3f" d="m943 439 5 1v5l-15 1c2.134-3.201 2.684-3.522 6.125-4.687l2.195-.762L943 440z"/><path fill="#fadc3d" d="M830 440c3.518.264 4.755.737 7.203 3.363l2.047 2.95 2.078 2.925c1.439 2.377 2.235 4.055 2.672 6.762a1660 1660 0 0 1-3.36-3.367 351 351 0 0 0-3.718-3.64l-2.172-2.118-2.078-2.008C831 443 831 443 830 440"/><path fill="#f9ee50" d="M997 416c2.576 3.863 4.922 7.844 7 12l-4-2 .035 1.793c.048 4.21.025 8.1-1.035 12.207h-1c-.9-8.023-1.115-15.93-1-24"/><path fill="#faef4f" d="M876 423c4.173 1.546 6.746 3.119 9 7v2l4-1-4 4-1.023-1.715-1.352-2.223-1.336-2.214c-1.166-1.986-1.166-1.986-3.289-2.848-2.371-.23-4.747-.411-7.125-.562l-3.883-.254L864 425c4.058-2.705 7.239-2.529 12-2"/><path fill="#af9302" d="m672 400 1.75.563c2.457.477 3.894.194 6.25-.563v2h8l-1 2c-4.296 1.268-7.51 2-12 2v-2l-4-1zm5 2-1 2h2z"/><path fill="#8b7802" d="m933 352 19 1c-4.19 2.095-6.695 2.404-11.312 2.688l-3.864.261c-3.795.05-7.098-.308-10.824-.949v-1l7-1z"/><path fill="#f8dd3f" d="m530 523 1 4h2v-3h6l-2 4h-3l-1 2-7-2c1.75-3.875 1.75-3.875 4-5"/><path fill="#6e6100" d="M488 543a110 110 0 0 1 9 4l-1 4c-3.873-1.144-7.003-2.233-10-5v-2z"/><path fill="#f8eb4a" d="M796 462c5.964 3.61 10.896 8.28 16 13h-3l-2-2-2.25-.125c-4.361-1.388-6.464-5.033-8.75-8.875z"/><path fill="#faef53" d="M979 394c3.72 2.039 6.384 4.197 9.188 7.375l2.042 2.273c1.793 2.383 2.803 4.545 3.77 7.352h-9c2-2 2-2 5-3-2.673-4.49-5.49-7.484-9.61-10.703L979 396z"/><path fill="#f9dc3f" d="M718 496c2.011 2.56 3.628 5.046 5 8h1v7h-2v-2h-2l-.937-2.375c-.992-2.548-.992-2.548-2.063-4.625.281-2.008.61-4.01 1-6"/><path fill="#fcdb3f" d="M876 437c2.726 2.355 3.988 4.54 5 8-.375 2.313-.375 2.313-1 4h-3c-1.135-2.27-1.342-4.046-1.625-6.562-.095-.806-.19-1.612-.29-2.442-.027-.659-.056-1.317-.085-1.996z"/><path fill="#544701" d="M877 426c2.867.573 3.861.861 6 3l-1 3-1-2c-1.43 2.354-2.087 3.48-1.625 6.25L880 438c-2.025-1.933-3.421-3.632-5-6-2.563-.73-2.563-.73-5-1v-1l7-2z"/><path fill="#6b5d00" d="M1064 409c2.219 1.11 4.018 2.514 6 4l2 1c.625 2.563.625 2.563 1 5-4.993-1.277-7.576-3.173-11-7z"/><path fill="#f6e545" d="m864 482 4 5c-2.762 2.762-5.207 2.579-9 3 .542-3.796 2.201-5.472 5-8"/><path fill="#f7eb4b" d="m898 451 2 1c.633 2.066.633 2.066 1.125 4.563l.508 2.503L902 461h3l1 6h-4q-1.007-3.154-2-6.312l-1.125-3.551C898 454 898 454 898 451"/><path fill="#facd03" d="m1040 344 4 2 2-2c.687 2.49 1 4.379 1 7-7.429.286-7.429.286-11-2 1.065-2.13 2.292-3.366 4-5"/><path fill="#f7ec4e" d="M598 543c3.112 1.498 6.053 3.2 9 5l-1-4c3 1 3 1 4.168 2.848l1.02 2.215 1.042 2.222L613 553c-6.06-1.399-10.428-4.946-15-9z"/><path fill="#faee4e" d="M507 507c1.245 2.49.777 3.41 0 6l5 2-1 2 2 2c-3.995-.615-6.745-2.706-10-5l2-1q.56-2.488 1-5z"/><path fill="#f8ef52" d="M685.25 478c4.74 1.724 7.376 5.802 9.988 9.98.917 2.431.622 3.612-.238 6.02l-.988-2.082-1.324-2.73-1.301-2.708c-2.04-3.647-3.4-5.15-7.387-6.48l-1 2-2-1v-2c2-1 2-1 4.25-1"/><path fill="#fcec4a" d="m734 477 5 1c2 3 2 3 1.625 5.188L740 485l-2-1-2 3z"/><path fill="#fddc3f" d="M609 518v3c-3.877 1.193-6.916 2-11 2v-3c3.823-1.423 6.913-2.24 11-2"/><path fill="#fdde3e" d="M751 464c4.968 1.552 9.179 4.51 13 8v2l-5-1v-2l-1.75-.812c-2.306-1.217-4.27-2.491-6.25-4.188z"/><path fill="#594a01" d="m1158 398 1 2c-4.473 5.61-8.592 8.796-15 12 4.273-5.234 8.816-9.671 14-14"/><path fill="#534401" d="m1136 381 2 3c3.584.25 3.584.25 7 0l-1 3 10 1v1c-6.334.345-11.103-.707-17-3z"/><path fill="#f9ee4a" d="M829 468c3.806 3.22 7.54 6.402 11 10l-1 3-5-6-2 3z"/><path fill="#f9da3a" d="M696 512h1l1 13h-4c-.167-4.921-.248-8.503 2-13"/><path fill="#f7e648" d="M879.625 479.875 882 480l-1 5-5 1c-.625-1.875-.625-1.875-1-4 2-2 2-2 4.625-2.125"/><path fill="#f7db40" d="m1037 412 2 1v6l3 1-3 1c-3.187-1.937-3.187-1.937-6-4 1-3 1-3 4-5"/><path fill="#473b02" d="m1077 399 9 3c-1.312 3.937-2.92 6.227-6 9l-1-2h2l1-7-5-1z"/><path fill="#bd9d01" d="M556 619h18v1l-2.75.375c-3.15.435-3.15.435-5.312 1.75-2.692 1.215-4.174.796-6.938-.125z"/><path fill="#f3e345" d="M700 485c4.988 2.494 5.513 4.203 8 9l-2 2h-2z"/><path fill="#b59b00" d="m633 616 13 1v1c-7.358.912-14.59 1.115-22 1v-1l9-1z"/><path fill="#968101" d="M813 590v1c-2.247.532-4.498 1.05-6.75 1.563l-3.797.878c-3.048.493-4.63.636-7.453-.441v-1c1.87-.536 3.747-1.053 5.625-1.562l3.164-.88c3.401-.591 5.865-.317 9.211.442"/><path fill="#6e6000" d="M859 451h4v2l2 1-2 5h-2v-2l-2-1z"/><path fill="#f4db40" d="M863 434v8c-2.155-1.58-4.106-3.106-6-5v-3c3-1 3-1 6 0"/><path fill="#4b4002" d="M1041 412c2.02.602 4.021 1.273 6 2l1 2-5 1v2h-4c.875-4.75.875-4.75 2-7"/><path fill="#fce84b" d="m648 507 3 1v2h-2v3l-7 1 2-4h4z"/><path fill="#625002" d="m468 500 2 1a1357 1357 0 0 1-5.875 4l-3.305 2.25C458 509 458 509 456 509v-5l1.742.656c3.005.458 3.95-.417 6.383-2.156 2.07-1.469 2.07-1.469 3.875-2.5"/><path fill="#f9f255" d="M1150 390h13c-1.074 4.294-1.508 4.747-5 7l2-5-10-1z"/><path fill="#f8cc03" d="M614 621c-2.55 2.55-4.235 2.26-7.717 2.273l-2.22-.023-2.21.023c-3.811-.014-5.611-.112-8.853-2.273 7.026-1.506 13.895-.64 21 0"/><path fill="#5a4c00" d="m858 472 5 3-1 6h2v2l-4 2c-1-3-1-3-.437-5.375.528-3.171-.18-4.776-1.563-7.625"/><path fill="#6d6000" d="M721 488h2c1.837 3.782 2.158 5.946 1 10-2.479-1.94-2.997-2.986-3.75-6.125L720 489z"/><path fill="#d0b82a" d="M706 505h1l.113 3.176q.099 2.069.2 4.137l.068 2.091c.203 4.088.203 4.088 2.162 7.576L711 523l-5 1z"/><path fill="#4b3e02" d="m528 492 2 3c3.574 1.112 3.574 1.112 7 0l-2 5c-3.112-1.498-6.053-3.2-9-5z"/><path fill="#f5d639" d="M753 488h1l1 6h1v10c-3-2-3-2-3.75-4.062-.346-4.061.18-7.915.75-11.938"/><path fill="#4e4001" d="M683 477h7c2.317 3.938 4.434 7.692 6 12-2.348-2.261-4.48-4.573-6.5-7.125-2.193-2.522-3.438-3.74-6.5-4.875"/><path fill="#f8eb4c" d="M848 464c2.25.125 2.25.125 5 1 2.375 2.875 2.375 2.875 4 6l-1 3-4-6-2 2z"/><path fill="#fadd3d" d="M834 459c2 1.375 2 1.375 4 3v2l4 1-2 3-7-6z"/><path fill="#fcee4d" d="M1054.75 437.875 1057 439l-2 1a113 113 0 0 0-3 5l-2-1 2-4-4-1c2.729-1.82 3.536-2.148 6.75-1.125"/><path fill="#f5e949" d="m717 469 2 3-7-1-1 2-4-4c3.76-1.254 6.154-.839 10 0"/><path fill="#f9e043" d="M916 445h7l1 2-1 2h-6z"/><path fill="#6a5e00" d="m1055 387 5 1c-.564 3.27-1.5 4.826-4 7l-2-1 1-3z"/><path fill="#887501" d="m808 374 1 2c-4.96 1.323-9.911 1.089-15 1 4.69-2.44 8.711-3.151 14-3"/><path fill="#9b8802" d="M790 595v1q-2.371.546-4.75 1.063l-2.672.597c-2.565.338-4.149.152-6.578-.66 5.223-2.665 8.082-3.329 14-2"/><path fill="#f8da3d" d="M524 511c5.75 1.625 5.75 1.625 8 5-2.375.625-2.375.625-5 1-2.139-2.139-2.427-3.133-3-6"/><path fill="#feef4d" d="M798 484c2.884 1.293 4.872 2.66 7 5l-2 4-3-1 .688-1.75c.577-2.372.577-2.372-1.125-4.5z"/><path fill="#f0e548" d="M841 466c3.092 2.53 3.91 5.225 5 9h-2c-1.508-1.75-1.508-1.75-3.125-4l-1.633-2.25L838 467z"/><path fill="#625600" d="m846 466 2 1c.625 2.563.625 2.563 1 5h-2l-1 3c-1.765-3.088-2-4.233-2-8z"/><path fill="#8f7b02" d="M884 571v2c-3.877 1.193-6.916 2-11 2v-2c3.823-1.423 6.913-2.24 11-2"/><path fill="#f4e94b" d="m854 455 1.313 1.438c1.71 1.799 1.71 1.799 4.687 2.562l1 7c-2.918-2.627-4.945-5.67-7-9z"/><path fill="#453b01" d="m525 516 5 2c-1.27 3.914-2.512 5.79-6 8l1.063-2.75c.902-3.128 1.07-4.302-.063-7.25"/><path fill="#f9eb51" d="m494 517 2 1-1.375 2.25c-1.627 2.608-1.627 2.608-2.562 5C491 527 491 527 487 528z"/><path fill="#7f6d03" d="m891 474 2 1c.594 2.649.742 5.292 1 8h-3c-1.46-2.647-2-3.894-2-7h2z"/><path fill="#f9e542" d="M752 507c1.097 3.29.8 4.713 0 8l-4-1c.313-2.375.313-2.375 1-5z"/><path fill="#6c5f00" d="M707 488c2.993 1.098 3.846 1.677 5.25 4.625L713 495l-3 1c-3-5.75-3-5.75-3-8"/><path fill="#726400" d="M744 478c1.563 1.125 1.563 1.125 3 3-.312 3.188-.312 3.188-1 6l-3-2z"/><path fill="#544301" d="m1005 461 1 2-7 9c0-2.84.403-5.237 1-8h3z"/><path fill="#706101" d="m838 457 9 2-1.937 1.375c-2.16 1.464-2.16 1.464-3.063 3.625-4-4.75-4-4.75-4-7"/><path fill="#5b4b01" d="M1110 368h10l1 3-3.812-.375-2.145-.21C1113 370 1113 370 1110 368"/><path fill="#f9eb4f" d="M625 528c-2 2-2 2-4.625 2.125L618 530v4l-3-1c.813-1.937.813-1.937 2-4 2.928-.976 4.956-1.082 8-1"/><path fill="#fbdc3d" d="M738 509h3c.625 2.375.625 2.375 1 5l-2 2h-3z"/><path fill="#f8ef4c" d="M775 496c5.571 5.143 5.571 5.143 6 9l-4-4-2 3z"/><path fill="#f8f058" d="M588 481h2v7l-2-2-3 4c.498-3.735.875-5.812 3-9"/><path fill="#ecd73c" d="M812 476c3.795 1.491 5.61 3.757 8 7-3 0-3 0-5.687-2.375C812 478 812 478 812 476"/><path fill="#f9db3c" d="M787 463c2.95 1.142 4.884 2.673 7 5l-1 2-2.312-2c-2.53-2.299-2.53-2.299-5.688-2v-2z"/><path fill="#fdee4e" d="M979 432h4l-1 5-8 1 1.938-.75c2.25-1.066 2.25-1.066 2.812-3.375z"/><path fill="#f7e94d" d="M1074 393h1c.313 2.188.313 2.188 0 5-2.175 2.519-4.01 4.505-7 6 1.45-4.108 3.454-7.469 6-11"/><path fill="#8f7b01" d="M1181 390c1.448 2.313 2.126 3.416 1.54 6.14l-.915 2.11-.898 2.14L1180 402l-2-3c.46-2.262.46-2.262 1.375-4.687l.898-2.45z"/><path fill="#938001" d="M893 359v2c-8.571 1.429-8.571 1.429-12-1 4.064-.774 7.864-1.098 12-1"/><path fill="#8d7901" d="m456 493 5 1-4 5-3-1z"/><path fill="#f7d83c" d="m825 491 6 1v3h-6z"/><path fill="#ddc936" d="M766 474c2 3 2 3 3 6l2 1v2c-2.468-1.152-4.048-2.048-6-4 .375-2.625.375-2.625 1-5"/><path fill="#736300" d="m876 425 2 1-2 4h-4v-3c1.875-1.062 1.875-1.062 4-2"/><path fill="#f5ea47" d="m952 421 2 1c.407 2.322.744 4.657 1 7l-5 1 2-2c.167-3.583.167-3.583 0-7"/><path fill="#f8ca04" d="M641 408c2.504.835 4.668 1.794 7 3v2h-7c-.562-1.937-.562-1.937-1-4z"/><path fill="#574702" d="m889 368 9 1c-3.204 2.136-4.02 2.231-7.687 2.125l-2.45-.055L886 371l3-1z"/><path fill="#8e7a02" d="M834 584v2c-6.055.977-6.055.977-8 1l-2-2c3.406-.778 6.508-1.1 10-1"/><path fill="#574704" d="M533 524h6l-2 4-4-1z"/><path fill="#6e6000" d="M1012 373h4l1 5-4 3 .625-1.75c.462-2.77-.196-3.896-1.625-6.25"/><path fill="#f9cb03" d="M1013 344c2 1 2 1 4 4-3.478 1.16-5.459.708-9 0 3-2 3-2 5-2z"/><path fill="#f4e347" d="M472 541c3.821.53 6.062 1.497 9 4l-9-1z"/><path fill="#eedc3d" d="m771 477 6 4-4 4z"/><path fill="#5c4e01" d="M768 475c2.063 1.75 2.063 1.75 4 4-.25 2.25-.25 2.25-1 4v-2l-3-1c-.75-2-.75-2-1-4z"/><path fill="#f3e241" d="m746 474 4 3-2 4-4-6z"/><path fill="#e9d93f" d="m979 470 5 1-5 5-2-1z"/><path fill="#524401" d="M631 444c-3.203 2.834-5.78 3.52-10 4 2.6-3.011 6.06-5.97 10-4"/><path fill="#594901" d="M1112 435c-.75 1.938-.75 1.938-2 4-2 .813-2 .813-4 1l-2-1c5.75-4 5.75-4 8-4"/><path fill="#f8ec4e" d="m1044 421 4 1v3l2 1c-2.937-.375-2.937-.375-6-1l-1-2z"/><path fill="#4c3f03" d="M1020 395c4.308 1.077 7.636 2.04 11 5-4.371-.508-7.39-1.452-11-4z"/><path fill="#443801" d="m1037 382 3 1c-.25 1.875-.25 1.875-1 4-2.062 1.25-2.062 1.25-4 2zM547 473l2 1-2 2a90 90 0 0 0-1 6c-2-3-2-3-1.75-5.625L545 474z"/><path fill="#978201" d="M549 447v2c-3.135 1.858-5.375 2.201-9 2 2.899-2.299 5.15-4 9-4"/><path fill="#4a3c01" d="m1001 422 3 2 3-1-1 4-4-1z"/><path fill="#f4e449" d="m1058 413 8 4v2h-3l-1-2c-2.017-1.134-2.017-1.134-4-2z"/><path fill="#927e01" d="M1177 402h2c-1.186 3.375-2.276 5.647-5 8 .547-3.375 1.055-5.082 3-8"/><path fill="#f8c903" d="M616 416h4l1 4-5 1z"/><path fill="#f7c803" d="m472 613 8 1c-3.228 2.152-4.284 2.2-8 2z"/><path fill="#faca02" d="M892 571h4l-2 5-2-2z"/><path fill="#f8cd04" d="M584 621h8c-2 2-2 2-4.625 2.125L585 623z"/><path fill="#f8cc05" d="M785 597h5v3l-6-1z"/><path fill="#f8ca04" d="m768 376 4 1-3 1v3l-2-1z"/><path fill="#fbcc00" d="m647 618 1 2h-3l-1 3v-3l-2-1z"/><path fill="#fbcd03" d="m514 618 5 1c-2.647 1.46-3.894 2-7 2z"/><path fill="#f7ca04" d="m592 425 1 2 3-1v2l-5 1z"/><path fill="#f7cb03" d="M576 621h7l-3 2z"/><path fill="#f1c703" d="m440 606 6 1v1h-5z"/><path fill="#f2c203" d="m393 588 4 2h-4z"/><path fill="#fcca02" d="m664 400 3 1-1 3h-2z"/><path fill="#f7c701" d="m408 596 5 1-4 1z"/><path fill="#f9cc03" d="M968 546v2h-5c3-2 3-2 5-2"/><path fill="#f6cb03" d="m820 368 3 1-5 1z"/><path fill="#f0c604" d="M1085 352h7v1h-7z"/><path fill="#f3c604" d="M925 352h7v1h-7z"/><path fill="#f9cb00" d="m980 347 3 2h-6z"/><path fill="#f8ce04" d="m818 590 4 1-4 1z"/><path fill="#f7c801" d="M380 563h1v5l-2-1z"/><path fill="#facb02" d="m942 555 3 1h-2v2l-2-1z"/><path fill="#f6c902" d="m980 541 3 1-3 2z"/><path fill="#f7c904" d="m1096 352 5 1-4 1z"/><path fill="#f9cc01" d="M701 612h4l-1 2z"/><path fill="#fbcc00" d="M759 602v3l-2-2z"/><path fill="#f5ca02" d="m384 580 3 3-3-1z"/><path fill="#f1c805" d="M996 534h3v2l-3-1z"/><path fill="#f8c905" d="M1095 482v3l-2-2z"/><path fill="#f6c808" d="M514 458v3l-2-2z"/><path fill="#f6c603" d="M573 432h3l-1 3v-2z"/><path fill="#f3c703" d="M744 384h2v2l-3-1z"/><path fill="#f9cc04" d="m775 377 3 2-4-1z"/><path fill="#f4cc08" d="M1173 376h3v2l-3-1z"/><path fill="#f7c903" d="m859 361 2 2-4-1z"/><path fill="#f7ca03" d="m573 621 2 2-3-1z"/><path fill="#f9cd03" d="m569 621 3 1h-3z"/><path fill="#f8cb02" d="m625 620 2 1h-3z"/><path fill="#facd04" d="m748 604 2 1-2 2z"/><path fill="#fac901" d="m752 604 3 2h-3z"/><path fill="#facd01" d="m426 602 3 1-3 1z"/><path fill="#fcd003" d="m799 594 1 2-3-1z"/><path fill="#fbce03" d="M830 587h2l-1 3z"/><path fill="#f6cb04" d="m852 582 3 1h-3zM881 574l4 1Z"/><path fill="#f6c703" d="m380 571 1 4Z"/><path fill="#efc504" d="m1061 502 2 1h-3z"/><path fill="#f8c603" d="M1094 486v3Z"/><path fill="#f4c905" d="m1090 485 1 2-3-1z"/><path fill="#f9c807" d="M516 456h2v2h-2z"/><path fill="#f7c704" d="M596 424h2v2h-2z"/><path fill="#f9cc03" d="m706 393 3 1h-3z"/><path fill="#f8cb04" d="m770 379 4 1Z"/><path fill="#f0c405" d="m784 376 4 1Z"/><path fill="#f7c702" d="m1166 370 2 1-1 2z"/><path fill="#f5ce06" d="m824 368 4 1Z"/><path fill="#f9d002" d="m1106 354 3 2h-3z"/><path fill="#fed300" d="m948 1021 2 1-2 1z"/><path fill="#fed400" d="m948 1013 2 1-2 1z"/><path fill="#fed200" d="m1091 1010 1 2-2-1z"/><path fill="#fed300" d="m948 1005 2 1-2 1zM948 997l2 1-2 1zM948 957l2 1-2 1zM948 941l2 1-2 1z"/><path fill="#fdd300" d="m84 930 1 2-2-1z"/><path fill="#fed300" d="m948 917 2 1-2 1zM948 901l2 1-2 1zM948 885l2 1-2 1zM948 861l2 1-2 1zM948 853l2 1-2 1z"/><path fill="#fdd300" d="m948 837 2 1-2 1z"/><path fill="#fed300" d="m948 829 2 1-2 1z"/><path fill="#fed200" d="m948 821 2 1-2 1zM948 805l2 1-2 1zM948 797l2 1-2 1zM948 781l2 1-2 1z"/><path fill="#fed300" d="m948 773 2 1-2 1z"/><path fill="#fed200" d="m948 765 2 1-2 1zM948 749l2 1-2 1zM948 741l2 1-2 1zM948 733l2 1-2 1zM1091 730l1 2-2-1z"/><path fill="#fdd200" d="m948 717 2 1-2 1z"/><path fill="#fed200" d="m1044 715 2 2h-2z"/><path fill="#fdd200" d="m948 709 2 1-2 1z"/><path fill="#fed100" d="m948 701 2 1-2 1z"/><path fill="#fed200" d="m948 677 2 1-2 1z"/><path fill="#fed100" d="m948 669 2 1-2 1z"/><path fill="#fdd000" d="m948 637 2 1-2 1z"/><path fill="#fac603" d="m524 622 2 2h-2z"/><path fill="#fecf00" d="m948 621 2 1-2 1z"/><path fill="#f9c703" d="m616 621 3 1Z"/><path fill="#f6c902" d="m533 620 3 1Z"/><path fill="#fecf00" d="m996 619 3 1Z"/><path fill="#f9cb00" d="m636 619 3 1Z"/><path fill="#f8cd01" d="m520 619 3 1Z"/><path fill="#fad003" d="M511 618h2l-1 2z"/><path fill="#f8ca03" d="m696 613 3 1Z"/><path fill="#f9cc04" d="m744 605 3 1Z"/><path fill="#f0ca04" d="m775 599 3 1Z"/><path fill="#fecd00" d="m948 589 2 1-2 1z"/><path fill="#f8cc04" d="m823 589 3 1Z"/><path fill="#fdcc00" d="m948 581 2 1-2 1z"/><path fill="#f6c402" d="m378 572 1 2-2-1z"/><path fill="#fac501" d="m375 571 2 2h-2z"/><path fill="#fdc900" d="m948 565 2 1-2 1z"/><path fill="#f6cb02" d="m977 542 2 1-2 1z"/><path fill="#fdca00" d="m1044 541 2 1-2 1z"/><path fill="#fdc900" d="m1044 533 2 2h-2z"/><path fill="#f4c304" d="M432 505h2l-1 2z"/><path fill="#f7c704" d="m1070 498 2 2h-2z"/><path fill="#f6c605" d="M496 465h2l-1 2z"/><path fill="#f6c705" d="m1127 460 1 2-2-1z"/><path fill="#f6c904" d="m557 440 2 2h-2z"/><path fill="#f3ca08" d="m559 440 3 1Z"/><path fill="#f9ca04" d="m621 416 3 1Z"/><path fill="#f3c704" d="m1174 411 2 2h-2z"/><path fill="#f2c504" d="m681 400 3 1Z"/><path fill="#f8cf03" d="m738 386 2 1-2 1z"/><path fill="#f9ce03" d="m808 371 3 1Z"/><path fill="#f5c802" d="m1163 369 1 2-2-1z"/><path fill="#efc606" d="m1157 368 3 1Z"/><path fill="#f9cc04" d="m850 363 3 1Z"/><path fill="#fbcc03" d="m849 361 2 1-2 1z"/><path fill="#f3c702" d="m864 360 2 1-2 1z"/><path fill="#fccc02" d="m895 355 2 1-2 1z"/><path fill="#f8cf03" d="m904 355 3 1Z"/><path fill="#f8cb03" d="m1101 354 3 1Z"/><path fill="#f8cf04" d="m914 353 1 2-2-1z"/><path fill="#f9cb00" d="m963 349 3 1Z"/><path fill="#fcc800" d="m948 349 2 1-2 1z"/><path fill="#fdca02" d="m967 347 2 1-2 1z"/><path fill="#fbcc01" d="m1002 347 3 1Z"/><path fill="#f9cb02" d="m1008 345 3 1Z"/><path fill="#fdc800" d="m948 341 2 1-2 1z"/><path fill="#fdcb00" d="m948 325 2 1-2 1z"/><path fill="#fdce00" d="m948 309 2 1-2 1zM948 301l2 1-2 1z"/><path fill="#fdd000" d="m948 285 2 1-2 1z"/><path fill="#fed000" d="m948 269 2 1-2 1zM948 261l2 1-2 1zM948 253l2 1-2 1z"/><path fill="#fed100" d="m948 245 2 1-2 1zM948 237l2 1-2 1zM948 221l2 1-2 1zM948 213l2 1-2 1z"/><path fill="#fdd100" d="m948 197 2 1-2 1z"/><path fill="#fdd200" d="m948 157 2 1-2 1z"/><path fill="#fed200" d="m948 101 2 1-2 1zM948 85l2 1-2 1z"/><path fill="#fed300" d="m948 37 2 1-2 1zM948 21l2 1-2 1zM948 13l2 1-2 1zM948 5l2 1-2 1zM1043 955l2 1Z"/><path fill="#ffd300" d="m1090 923 2 1ZM1090 915l2 1ZM1090 899l2 1ZM1090 851l2 1Z"/><path fill="#fed300" d="m1090 827 2 1Z"/><path fill="#ffd300" d="m1090 795 2 1Z"/><path fill="#fdd200" d="m947 795 2 1Z"/><path fill="#fed300" d="m997 787 2 1Z"/><path fill="#ffd300" d="m1090 755 2 1Z"/><path fill="#ffd200" d="m1090 747 2 1Z"/><path fill="#fed200" d="m1090 715 2 1Z"/><path fill="#ffd200" d="m1090 699 2 1Z"/><path fill="#fed100" d="m948 693 2 1Z"/><path fill="#fed300" d="m1090 691 2 1Z"/><path fill="#ffd200" d="m1090 667 2 1Z"/><path fill="#fed100" d="m948 661 2 1Z"/><path fill="#ffd200" d="m1090 651 2 1Z"/><path fill="#ffd100" d="m1090 627 2 1Z"/><path fill="#f9c803" d="m635 623 2 1Z"/><path fill="#fed000" d="m997 621 2 1Z"/><path fill="#f7c802" d="m622 620 2 1Z"/><path fill="#ffd000" d="m1090 619 2 1Z"/><path fill="#fbce00" d="m507 618 2 1Z"/><path fill="#f9c400" d="m709 615 2 1Z"/><path fill="#f2c801" d="m678 615 2 1Z"/><path fill="#f8c802" d="m707 614 2 1Z"/><path fill="#ffd000" d="m1090 611 2 1Z"/><path fill="#f9cc01" d="m710 611 2 1Z"/><path fill="#f9ce00" d="m707 611 2 1Z"/><path fill="#fece00" d="m948 605 2 1Z"/><path fill="#fec901" d="m424 605 2 1Z"/><path fill="#fed000" d="m1090 603 2 1Z"/><path fill="#facc00" d="m754 603 2 1Z"/><path fill="#fad002" d="m424 601 2 1Z"/><path fill="#f7cb02" d="m781 598 2 1Z"/><path fill="#f6cc06" d="m790 596 2 1Z"/><path fill="#fccc03" d="m836 588 2 1Z"/><path fill="#fccf04" d="m828 588 2 1Z"/><path fill="#f5ca04" d="m848 583 2 1Z"/><path fill="#fcd005" d="m860 580 2 1Z"/><path fill="#f9ce03" d="m862 579 2 1Z"/><path fill="#ffce00" d="m1090 571 2 1Z"/><path fill="#facc03" d="m916 564 2 1Z"/><path fill="#ffcf00" d="m1090 563 2 1Z"/><path fill="#fbcc02" d="m939 558 2 1Z"/><path fill="#ffce00" d="m1090 555 2 1Z"/><path fill="#f5c906" d="m982 540 2 1Z"/><path fill="#ffce00" d="m1090 539 2 1Z"/><path fill="#ffcd00" d="m1090 531 2 1Z"/><path fill="#f1c505" d="m408 529 2 1Z"/><path fill="#f7c906" d="m1017 525 2 1Z"/><path fill="#fecb00" d="m1090 523 2 1Z"/><path fill="#f2c704" d="m425 515 2 1Z"/><path fill="#f3c804" d="m429 512 2 1Z"/><path fill="#efc908" d="m1045 511 2 1Z"/><path fill="#fec800" d="m1090 499 2 1Z"/><path fill="#edbe05" d="m448 496 2 1Z"/><path fill="#fcc600" d="m1090 491 2 1Z"/><path fill="#fcc703" d="m466 483 2 1Z"/><path fill="#f2c505" d="m475 481 2 1Z"/><path fill="#f4ca02" d="m477 480 2 1Z"/><path fill="#f2c105" d="m473 480 2 1Z"/><path fill="#fed200" d="m131 475 2 1Z"/><path fill="#f5c806" d="m519 457 2 1Z"/><path fill="#f4c706" d="m1133 455 2 1Z"/><path fill="#f8c902" d="m545 446 2 1Z"/><path fill="#f5c805" d="m552 443 2 1Z"/><path fill="#f6c803" d="m554 442 2 1Z"/><path fill="#f7c605" d="m568 434 2 1Z"/><path fill="#f8c906" d="m645 408 2 1Z"/><path fill="#f8cc02" d="m711 393 2 1Z"/><path fill="#f8ca03" d="m704 392 2 1Z"/><path fill="#faca04" d="m735 387 2 1Z"/><path fill="#f2ca03" d="m749 384 2 1Z"/><path fill="#f9c804" d="m781 376 2 1Z"/><path fill="#fbca01" d="m800 373 2 1Z"/><path fill="#ffcb02" d="m799 371 2 1Z"/><path fill="#f9cb03" d="m814 370 2 1Z"/><path fill="#f2c801" d="m869 360 2 1Z"/><path fill="#f9c805" d="m853 360 2 1Z"/><path fill="#fccc01" d="m888 357 2 1Z"/><path fill="#f7c800" d="m897 356 2 1Z"/><path fill="#f7ce06" d="m920 353 2 1Z"/><path fill="#f9ca04" d="m1101 352 2 1Z"/><path fill="#fccd00" d="m1052 349 2 1Z"/><path fill="#fec700" d="m1090 347 2 1Z"/><path fill="#fdc700" d="m1070 347 2 1Z"/><path fill="#fbcb03" d="m1023 347 2 1Z"/><path fill="#fdcd02" d="m975 347 2 1Z"/><path fill="#fec800" d="m947 347 2 1Z"/><path fill="#ffcb00" d="m1090 323 2 1Z"/><path fill="#fc0" d="m1090 315 2 1Z"/><path fill="#ffcf00" d="m1090 291 2 1Z"/><path fill="#ffd100" d="m1090 251 2 1ZM1090 243l2 1ZM1090 227l2 1Z"/><path fill="#ffd200" d="m1090 147 2 1ZM1090 51l2 1ZM1090 43l2 1Z"/><path fill="#fdd300" d="m947 43 2 1Z"/><path fill="#ffd200" d="m1090 35 2 1ZM1090 27l2 1ZM1090 11l2 1Z"/></svg>